<svg width="91" height="86" viewBox="0 0 91 86" fill="none" xmlns="http://www.w3.org/2000/svg">
    <path fill-rule="evenodd" clip-rule="evenodd" d="M45.5 86 0 30.927 17.38 0H73.62L91 30.927 45.5 86zm42.08-54.073L50.257 77.101l18.66-45.174H87.58zm-20.825 0L45.931 82.34l-.43.52-.431-.52-20.825-50.412h42.51zm-44.674 0 18.66 45.174-37.32-45.174h18.66zm-19.225-2L17.146 4.5l4.415 25.428H2.856zm20.478-1.481L18.742 2h24.046L23.334 28.446zM45.271 2 24.727 29.927h41.546L45.73 2h-.46zm2.942 0h24.046l-4.593 26.446L48.213 2zm21.226 27.927h18.705L73.854 4.5 69.44 29.927z" fill="#091C27"/>
</svg>
