<svg width="76" height="101" viewBox="0 0 76 101" fill="none" xmlns="http://www.w3.org/2000/svg">
    <path d="m38 0 7.868 8.636L57 5.09l2.496 11.413L70.909 19l-3.545 11.132L76 38l-8.636 7.868L70.91 57l-11.413 2.496L57 70.909l-11.132-3.545L38 76l-7.868-8.636L19 70.91l-2.496-11.413L5.091 57l3.545-11.132L0 38l8.636-7.868L5.09 19l11.413-2.496L19 5.091l11.132 3.545L38 0z" fill="#fff"/>
    <path fill-rule="evenodd" clip-rule="evenodd" d="M61 38c0 12.703-10.297 23-23 23S15 50.703 15 38s10.297-23 23-23 23 10.297 23 23zm-2 0c0 11.598-9.402 21-21 21s-21-9.402-21-21 9.402-21 21-21 21 9.402 21 21z" fill="#141C25"/>
    <path fill-rule="evenodd" clip-rule="evenodd" d="M45.868 8.636 38 0l-7.868 8.636L19 5.09l-2.496 11.413L5.091 19l3.545 11.132L0 38l8.636 7.868L5.09 57l11.413 2.496L19 70.909l4-1.274v30.367l15-7.84 15 7.84V69.635l4 1.274 2.496-11.413L70.909 57l-3.545-11.132L76 38l-8.636-7.868L70.91 19l-11.413-2.496L57 5.091 45.868 8.636zM25 96.7V68.998l5.132-1.634L38 76l7.868-8.636L51 68.998V96.7l-13-6.795L25 96.7zM55.515 7.663 45.253 10.93 38 2.97l-7.253 7.96-10.262-3.267-2.301 10.52-10.521 2.302 3.268 10.262L2.97 38l7.96 7.253-3.267 10.262 10.52 2.301 2.302 10.521 10.262-3.268L38 73.03l7.253-7.96 10.262 3.267 2.301-10.52 10.521-2.302-3.268-10.262L73.03 38l-7.96-7.253 3.267-10.262-10.52-2.301-2.302-10.521z" fill="#141C25"/>
    <path d="M32.803 47v-.25h1.793c.482 0 .883-.068 1.205-.201.338-.134.588-.334.749-.602.16-.267.24-.602.24-1.003v-14.29c-.73.853-1.31 1.488-1.739 1.906-.428.418-.776.694-1.044.827-.25.134-.5.2-.75.2-.427 0-.748-.125-.963-.375-.196-.251-.294-.577-.294-.978a11.38 11.38 0 0 0 1.873-.175 5.004 5.004 0 0 0 1.419-.527c.41-.25.82-.577 1.231-.978L38.103 29h1.39v15.944c0 .401.081.736.242 1.003.16.267.401.468.722.602.34.133.75.2 1.232.2H43V47H32.803z" fill="#141C25"/>
</svg>
