<svg width="77" height="87" viewBox="0 0 77 87" fill="none" xmlns="http://www.w3.org/2000/svg">
    <path fill-rule="evenodd" clip-rule="evenodd" d="M38.5 0c10.87 0 19.483 9.231 18.8 20.148l-.5 7.976c1.572.716 2.716 2.917 2.716 5.522 0 2.982-1.5 5.436-3.422 5.737a17.761 17.761 0 0 1-7.086 12.883v5.809a4.179 4.179 0 0 0 3.365 4.108l11.26 2.204C73.86 66.387 79.71 77.302 75.755 87H1.245C-2.71 77.302 3.14 66.388 13.367 64.387l11.26-2.204a4.179 4.179 0 0 0 3.365-4.108v-5.809a17.761 17.761 0 0 1-7.086-12.883c-1.923-.301-3.422-2.755-3.422-5.737 0-2.605 1.144-4.806 2.715-5.522l-.499-7.976C19.017 9.23 27.63 0 38.5 0zm35.848 85c2.531-8.209-2.556-16.979-11.099-18.65l-11.26-2.204a6.179 6.179 0 0 1-4.981-6.071v-6.811l.803-.6a15.761 15.761 0 0 0 6.29-11.435l.122-1.577 1.562-.245c.194-.03.607-.218 1.027-.917.407-.677.704-1.672.704-2.844 0-2.193-.972-3.441-1.544-3.702l-1.253-.571.585-9.35C55.916 10.245 48.202 2 38.5 2c-9.702 0-17.416 8.245-16.804 18.023l.585 9.35-1.252.57c-.573.262-1.545 1.51-1.545 3.703 0 1.172.297 2.167.704 2.844.42.698.833.887 1.027.917l1.562.245.123 1.577a15.761 15.761 0 0 0 6.289 11.435l.803.6v6.81a6.178 6.178 0 0 1-4.981 6.072L13.75 66.35C5.208 68.02.12 76.792 2.65 85h71.697z" fill="#141C25"/>
</svg>
