<svg width="72" height="84" viewBox="0 0 72 84" fill="none" xmlns="http://www.w3.org/2000/svg">
    <path fill-rule="evenodd" clip-rule="evenodd" d="M10.712 5.053C4.344 8.159 0 12.64 0 17.905v48.178c0 5.264 4.344 9.746 10.712 12.853 6.435 3.139 15.255 5.052 24.943 5.052s18.508-1.913 24.943-5.052c6.368-3.107 10.712-7.589 10.712-12.853V17.905c0-5.264-4.344-9.746-10.712-12.852C54.163 1.913 45.343 0 35.655 0S17.147 1.913 10.712 5.053zm.877 1.797C5.414 9.862 2 13.832 2 17.905c0 4.072 3.414 8.043 9.589 11.054 6.107 2.98 14.614 4.85 24.066 4.85 9.451 0 17.959-1.87 24.066-4.85 6.174-3.011 9.589-6.982 9.589-11.054 0-4.073-3.415-8.043-9.589-11.055C53.614 3.87 45.106 2 35.655 2c-9.452 0-17.96 1.87-24.066 4.85zM2 66.083c0 4.073 3.414 8.043 9.589 11.055 6.107 2.98 14.614 4.85 24.066 4.85 9.451 0 17.959-1.87 24.066-4.85 6.174-3.012 9.589-6.982 9.589-11.055V57.71c-1.87 2.687-4.934 5.014-8.712 6.857-6.435 3.139-15.255 5.052-24.943 5.052s-18.508-1.913-24.943-5.052C6.934 62.724 3.869 60.397 2 57.71v8.373zm9.589-3.314C5.414 59.757 2 55.787 2 51.714V40.805c1.869 2.687 4.934 5.014 8.712 6.857 6.435 3.139 15.255 5.052 24.943 5.052s18.508-1.913 24.943-5.052c3.778-1.843 6.843-4.17 8.712-6.857v10.91c0 4.072-3.415 8.042-9.589 11.054-6.107 2.98-14.615 4.85-24.066 4.85-9.452 0-17.96-1.87-24.066-4.85zm57.72-27.96V23.9c-1.868 2.687-4.933 5.014-8.711 6.857-6.435 3.14-15.255 5.052-24.943 5.052s-18.508-1.913-24.943-5.052C6.934 28.914 3.869 26.587 2 23.9v10.91c0 4.072 3.414 8.042 9.589 11.054 6.107 2.98 14.614 4.85 24.066 4.85 9.451 0 17.959-1.87 24.066-4.85 6.174-3.012 9.589-6.982 9.589-11.054z" fill="#141C25"/>
</svg>
