<svg width="94" height="74" viewBox="0 0 94 74" fill="none" xmlns="http://www.w3.org/2000/svg">
    <path fill-rule="evenodd" clip-rule="evenodd" d="M47 0a7 7 0 0 0-4.371 12.468L28.124 37.165l-14.541-7.778a7 7 0 1 0-5.825 4.573L15 62.126V73.5h64V62.127l7.243-28.168a7 7 0 1 0-5.848-4.635L65.39 37.168 51.306 12.52A7 7 0 0 0 47 0zm-5 7a5 5 0 1 1 10 0 5 5 0 0 1-10 0zM9.694 33.463 16.775 61h60.45l7.08-27.537a7.025 7.025 0 0 1-2.982-2.367L64.61 39.832 49.57 13.513A6.98 6.98 0 0 1 47 14a6.98 6.98 0 0 1-2.647-.518L28.876 39.835 12.638 31.15a7.024 7.024 0 0 1-2.944 2.313zM82 27a5 5 0 1 1 10 0 5 5 0 0 1-10 0zM17 63v8.5h60V63H17zM2 27a5 5 0 1 1 10 0 5 5 0 0 1-10 0z" fill="#141C25"/>
</svg>
