<svg width="113" height="137" viewBox="0 0 113 137" fill="none" xmlns="http://www.w3.org/2000/svg">
    <path fill-rule="evenodd" clip-rule="evenodd" d="M1 .997H0v136.001h112.382V31.497l-.294-.293L82.096 1.29l-.293-.292H1zm1 134.001v-132h78.39v29.914h29.992v102.086H2zM108.963 30.912 82.39 4.407v26.505h26.573zm-84.62-3.397h48.544v-2H24.344v2zm48.544 7.87H24.344v2h48.543v-2zm-48.543 12.33h48.543v-2H24.344v2zm65.24-2h-9.431v2h9.43v-2zM72.886 55.43H24.344v2h48.543v-2zm7.266 2h9.43v-2h-9.43v2zm-55.81 10.177h48.544v-2H24.344v2zm0 10.178h38.495v-2H24.344v2zM38.322 92.51c-.725-.291-1.444-.407-2.136-.305-.7.103-1.303.42-1.802.88-.962.887-1.533 2.303-1.866 3.858-.672 3.149-.5 7.53.265 11.694.622 3.391 1.66 6.765 3.052 9.299-1.278 2.718-2.632 5.17-3.829 7.036l1.683 1.08c1.076-1.675 2.27-3.8 3.427-6.164.891 1.114 1.96 1.983 3.216 2.287 1.46.353 2.926-.111 4.302-1.305 1.66-1.44 3.08-3.235 4.238-5.156.589.555 1.285.982 2.093 1.186.99.249 2.054.139 3.153-.34 1.716-.749 3.075-2.121 4.107-3.673.53-.798.984-1.659 1.362-2.537.409.308.855.61 1.343.906 1.132.685 2.127 1.084 3.002 1.122.969.041 1.722-.365 2.21-1.068.433-.625.617-1.424.713-2.16.099-.757.12-1.595.134-2.374l.004-.214c.013-.721.024-1.388.08-1.981.064-.672.175-1.103.31-1.342.059-.104.102-.135.116-.143.01-.005.046-.028.155-.026.269.006.812.161 1.754.769l1.085-1.681c-1.03-.664-1.959-1.068-2.794-1.087a2.255 2.255 0 0 0-1.238.316c-.369.224-.631.537-.818.865-.355.626-.492 1.415-.56 2.14-.064.675-.077 1.421-.09 2.125l-.004.222c-.014.791-.035 1.522-.117 2.153-.085.65-.22 1.057-.373 1.278-.1.142-.201.222-.48.21-.374-.016-1.021-.21-2.053-.835-.643-.39-1.19-.783-1.655-1.173.054-.177.105-.354.154-.53.46-1.685.662-3.335.563-4.61-.048-.627-.175-1.252-.449-1.752-.273-.499-.76-.97-1.479-1.019-.937-.177-1.763.349-2.273.979-.554.683-.9 1.648-.909 2.733-.013 1.486.592 3.156 2.086 4.762a14.66 14.66 0 0 1-1.445 2.845c-.898 1.351-1.988 2.4-3.24 2.947-.758.33-1.367.359-1.866.233-.507-.127-.995-.44-1.455-.955a3.55 3.55 0 0 1-.112-.13 27.36 27.36 0 0 0 2.077-5.545c.529-2.109.72-4.112.458-5.645-.131-.765-.39-1.499-.86-2.06a2.564 2.564 0 0 0-2.017-.94c-.965 0-1.735.468-2.29 1.139-.535.648-.891 1.503-1.12 2.41-.457 1.822-.47 4.141-.091 6.316.273 1.57.767 3.15 1.512 4.451-1.13 2.017-2.555 3.904-4.232 5.358-1.026.891-1.85 1.035-2.52.872-.736-.178-1.543-.782-2.361-1.901a11.175 11.175 0 0 1-.35-.509c1.435-3.164 2.742-6.619 3.604-9.927.864-3.313 1.305-6.571.921-9.277-.389-2.738-1.657-5.046-4.295-6.107zm1.44 14.88c-.705 2.702-1.723 5.518-2.864 8.181-.917-2.071-1.658-4.628-2.148-7.295-.74-4.029-.872-8.121-.276-10.915.303-1.416.76-2.34 1.266-2.806.236-.218.478-.333.738-.372.268-.04.625-.007 1.098.183 1.764.71 2.736 2.243 3.06 4.533.33 2.323-.039 5.281-.875 8.491zm19.272-4.004c.064.829-.036 1.966-.323 3.228-.603-.925-.799-1.767-.793-2.423.006-.684.225-1.198.463-1.492.21-.261.347-.269.362-.269l.088.022c.077.148.166.447.203.934zm-9.01 4.458a24.845 24.845 0 0 1-1.335 3.876c-.29-.762-.52-1.615-.676-2.513-.343-1.969-.313-3.996.062-5.485.187-.748.444-1.289.72-1.624.259-.311.5-.412.749-.412.218 0 .355.07.484.224.158.188.323.539.422 1.113.196 1.147.069 2.844-.427 4.821z" fill="#9D968C"/>
</svg>
