<svg width="129" height="143" viewBox="0 0 129 143" fill="none" xmlns="http://www.w3.org/2000/svg">
    <path fill-rule="evenodd" clip-rule="evenodd" d="M57.388 4.789c-1.107 1.568-1.443 3.481-1.403 4.746v10.291c.005.173.005.34 0 .498v14.348H70.99V20.33a9.052 9.052 0 0 1 0-.748V9.535c.04-1.265-.296-3.178-1.402-4.746C68.52 3.276 66.679 2 63.488 2c-3.192 0-5.032 1.276-6.1 2.789zm15.602 14.83v15.053h15.546v-14.41c.06-1.308-.265-3.284-1.401-4.904-1.098-1.563-3.013-2.888-6.372-2.888s-5.274 1.325-6.372 2.888c-.963 1.372-1.343 3-1.4 4.261zm17.546 8.555V20.33c.07-1.639-.323-4.068-1.764-6.12-1.488-2.12-4.026-3.74-8.009-3.74-3.78 0-6.258 1.459-7.773 3.419V9.58c.047-1.59-.36-3.95-1.768-5.945C69.77 1.579 67.314 0 63.488 0c-3.827 0-6.283 1.58-7.734 3.636-1.408 1.994-1.816 4.354-1.769 5.945v4.795c-1.365-1.63-3.516-2.819-6.693-2.819-3.501 0-5.756 1.443-7.086 3.33-1.287 1.826-1.654 3.982-1.607 5.437v14.348H0v72.568h19.178c2.617 4.556 8.648 14.092 14.05 19.427 5.284 5.219 7.05 12.484 7.264 15.406l.067.927h61.061l.278-.546c1.711-3.354 4.262-9.161 6.387-15.735 2.014-6.229 3.669-13.213 3.831-19.479H129V34.672h-21.189v-.36c0-1.608-.471-4-1.914-6.02-1.48-2.07-3.94-3.682-7.724-3.682-3.711 0-6.15 1.55-7.637 3.564zm15.275 6.498v-.36c0-1.291-.393-3.25-1.541-4.857-1.112-1.555-2.971-2.845-6.097-2.845-3.126 0-4.985 1.29-6.096 2.845-1.148 1.607-1.541 3.566-1.541 4.857v.36h15.275zm4.305 72.568H56.47c-1.85 0-3.974-.761-5.794-1.626a30.927 30.927 0 0 1-4.5-2.636c-2.745-1.896-8.639-7.932-11.186-17.418-2.419-9.004-8.023-14.94-10.428-16.724l-.067-.05-.057-.06c-.641-.666-1.96-1.712-3.508-2.225-1.505-.5-3.157-.484-4.716.807-.543.449-.818.78-.966 1.063-.136.262-.2.55-.183.987.017.468.123 1.05.302 1.892l.135.62c.153.703.335 1.534.517 2.505.477 2.542.623 3.93.641 5.115.009.57-.012 1.084-.035 1.627l-.001.042a44.54 44.54 0 0 0-.048 1.966c0 10.345 2.726 19.426 4.083 22.674 2.443 4.321 8.595 14.132 13.975 19.445 5.239 5.175 7.265 12.125 7.754 15.756h58.003c1.657-3.332 4.011-8.773 5.991-14.897 1.984-6.136 3.571-12.89 3.734-18.863zm-91.816-2c-1.506-4.176-3.724-12.63-3.724-22.115 0-.837.026-1.483.05-2.049v-.019a26.44 26.44 0 0 0 .035-1.537c-.016-1.024-.14-2.287-.608-4.776-.176-.94-.349-1.73-.501-2.429-.05-.225-.096-.44-.14-.647-.178-.829-.321-1.57-.346-2.235-.026-.695.075-1.347.409-1.987.323-.618.824-1.15 1.463-1.68 2.22-1.836 4.64-1.82 6.621-1.164 1.892.627 3.446 1.848 4.261 2.677 2.752 2.074 8.573 8.35 11.101 17.763 2.416 8.996 8.012 14.65 10.399 16.296l.008.005.008.006c.902.649 2.47 1.637 4.198 2.458 1.756.835 3.547 1.433 4.936 1.433H127V36.672H2v68.568h16.3zm22.3-70.568h13.385V19.854c-.039-1.105-.372-2.581-1.241-3.814-.946-1.342-2.583-2.483-5.452-2.483-2.869 0-4.506 1.141-5.451 2.483-.985 1.397-1.282 3.105-1.242 4.233v14.399zm35.654 16.67c3.874 3.494 6.859 9.337 6.859 18.594 0 9.26-2.985 15.225-6.84 18.884-3.83 3.634-8.43 4.91-11.555 4.96h-.027l-.028-.002c-3.119-.121-7.711-1.482-11.533-5.133-3.85-3.679-6.838-9.607-6.838-18.709 0-9.1 2.99-14.905 6.856-18.42 3.83-3.478 8.424-4.626 11.543-4.607 3.123-.092 7.727.971 11.563 4.432zm-1.34 1.484c-3.41-3.077-7.5-4-10.18-3.917h-.04c-2.684-.02-6.783.983-10.2 4.088-3.387 3.078-6.202 8.31-6.202 16.94 0 8.628 2.815 14.008 6.22 17.262 3.421 3.269 7.517 4.468 10.202 4.58 2.68-.05 6.767-1.169 10.181-4.41 3.399-3.225 6.218-8.635 6.218-17.433 0-8.799-2.819-14.06-6.199-17.11z" fill="#9D968C"/>
</svg>
