<svg width="172" height="137" viewBox="0 0 172 137" fill="none" xmlns="http://www.w3.org/2000/svg">
    <path fill-rule="evenodd" clip-rule="evenodd" d="M77.945 87.621c3.797 0 6.342-2.975 6.342-7.476 0-4.501-2.545-7.476-6.342-7.476-3.796 0-6.38 3.014-6.38 7.476s2.584 7.476 6.38 7.476zm0-2.23c-2.348 0-3.836-1.997-3.836-5.246 0-3.249 1.488-5.245 3.836-5.245 2.388 0 3.836 1.957 3.836 5.245 0 3.288-1.448 5.245-3.836 5.245z" fill="#9D968C"/>
    <path d="M75.753 100.304h3.014l18.71-27.4h-3.013l-18.71 27.4z" fill="#9D968C"/>
    <path fill-rule="evenodd" clip-rule="evenodd" d="M95.286 100.538c3.796 0 6.38-3.014 6.38-7.476s-2.584-7.476-6.38-7.476c-3.797 0-6.341 3.014-6.341 7.476s2.544 7.476 6.34 7.476zm0-2.23c-2.388 0-3.836-1.958-3.836-5.246 0-3.288 1.448-5.245 3.836-5.245 2.348 0 3.836 1.996 3.836 5.245s-1.488 5.245-3.836 5.245z" fill="#9D968C"/>
    <path d="m84.777 45.154 17.378-17.378-1.73-1.73-15.648 15.648-7.698-7.697-1.73 1.73 9.428 9.427zM145.56 38.336h-6.581v-2.031h6.581v2.03z" fill="#9D968C"/>
    <path fill-rule="evenodd" clip-rule="evenodd" d="M137.464 92.377c2.373 0 3.963-1.86 3.963-4.673 0-2.813-1.59-4.672-3.963-4.672s-3.988 1.883-3.988 4.672c0 2.79 1.615 4.673 3.988 4.673zm0-1.394c-1.468 0-2.398-1.248-2.398-3.279 0-2.03.93-3.278 2.398-3.278 1.492 0 2.397 1.223 2.397 3.278 0 2.055-.905 3.279-2.397 3.279z" fill="#9D968C"/>
    <path d="M136.094 100.303h1.883l11.694-17.125h-1.883l-11.694 17.125z" fill="#9D968C"/>
    <path fill-rule="evenodd" clip-rule="evenodd" d="M148.301 100.45c2.373 0 3.988-1.883 3.988-4.672 0-2.79-1.615-4.673-3.988-4.673s-3.963 1.884-3.963 4.672c0 2.79 1.59 4.673 3.963 4.673zm0-1.394c-1.492 0-2.397-1.224-2.397-3.278 0-2.056.905-3.279 2.397-3.279 1.468 0 2.398 1.248 2.398 3.279 0 2.03-.93 3.278-2.398 3.278zM24.928 92.377c2.373 0 3.963-1.86 3.963-4.673 0-2.813-1.59-4.672-3.963-4.672s-3.988 1.883-3.988 4.672c0 2.79 1.615 4.673 3.988 4.673zm0-1.394c-1.468 0-2.398-1.248-2.398-3.279 0-2.03.93-3.278 2.398-3.278 1.492 0 2.398 1.223 2.398 3.278 0 2.055-.906 3.279-2.398 3.279z" fill="#9D968C"/>
    <path d="M23.558 100.303h1.884l11.694-17.125h-1.884l-11.694 17.125z" fill="#9D968C"/>
    <path fill-rule="evenodd" clip-rule="evenodd" d="M35.766 100.45c2.373 0 3.987-1.883 3.987-4.672 0-2.79-1.614-4.673-3.987-4.673s-3.964 1.884-3.964 4.672c0 2.79 1.59 4.673 3.964 4.673zm0-1.394c-1.493 0-2.398-1.224-2.398-3.278 0-2.056.905-3.279 2.398-3.279 1.468 0 2.397 1.248 2.397 3.279 0 2.03-.93 3.278-2.397 3.278z" fill="#9D968C"/>
    <path d="M33.025 38.336h-6.581v-2.031h6.58v2.03z" fill="#9D968C"/>
    <path fill-rule="evenodd" clip-rule="evenodd" d="M115.357 0H56.643v7.34H.375V129.66h56.268V137h58.714v-7.339h56.268V7.339h-56.268V0zm-2.446 134.554H59.089V2.446h53.822v132.108zm56.268-7.34h-53.822V9.786h53.822v117.428zm-112.536 0V9.786H2.82v117.428h53.822z" fill="#9D968C"/>
</svg>
