<svg width="64" height="64" viewBox="0 0 64 64" fill="none" xmlns="http://www.w3.org/2000/svg">
    <path fill-rule="evenodd" clip-rule="evenodd" d="M5 39v3h54v-3h-.669c-.076-.336-.159-.67-.247-1-2.645-9.88-10.754-17.526-20.89-19.5-1.68-.328-3.417-.5-5.194-.5a27.14 27.14 0 0 0-5.194.5C16.67 20.473 8.561 28.12 5.916 38c-.088.33-.17.664-.247 1H5zm5.084-1C13.044 28.72 21.742 22 32 22c10.259 0 18.956 6.72 21.917 16H10.084zm18.091-23.766C28.677 15.256 30.199 16 32 16c1.8 0 3.324-.744 3.825-1.767.114-.231.175-.478.175-.733 0-1.38-1.79-2.5-4-2.5s-4 1.12-4 2.5c0 .255.061.502.175.734zM57 44H7l-1.5 5H3v5h58v-5h-2.5L57 44zm-2.376 6-.6-2H9.976l-.6 2h45.248z" fill="#D04C3E"/>
</svg>
