<svg width="64" height="64" viewBox="0 0 64 64" fill="none" xmlns="http://www.w3.org/2000/svg">
    <path fill-rule="evenodd" clip-rule="evenodd" d="M12 4a5 5 0 0 0-5 5v30a5 5 0 0 0 5 5h8v3a5 5 0 0 0 5 5h8v3a5 5 0 0 0 5 5h14a5 5 0 0 0 5-5V25a5 5 0 0 0-5-5h-8v-3a5 5 0 0 0-5-5h-8V9a5 5 0 0 0-5-5H12zm15 8V9a1 1 0 0 0-1-1h-3v1a1 1 0 0 1-1 1h-6a1 1 0 0 1-1-1V8h-3a1 1 0 0 0-1 1v30a1 1 0 0 0 1 1h8V17a5 5 0 0 1 5-5h2zm13 5v3h-2a5 5 0 0 0-5 5v23h-8a1 1 0 0 1-1-1V17a1 1 0 0 1 1-1h3v1a1 1 0 0 0 1 1h6a1 1 0 0 0 1-1v-1h3a1 1 0 0 1 1 1zm-3 8a1 1 0 0 1 1-1h3v1a1 1 0 0 0 1 1h6a1 1 0 0 0 1-1v-1h3a1 1 0 0 1 1 1v30a1 1 0 0 1-1 1H38a1 1 0 0 1-1-1V25z" fill="#D04C3E"/>
</svg>
