<?xml version="1.0" encoding="UTF-8"?>
<svg width="16px" height="16px" viewBox="0 0 16 16" version="1.1" xmlns="http://www.w3.org/2000/svg" xmlns:xlink="http://www.w3.org/1999/xlink">
    <title>Shape</title>
    <g id="Page-1" stroke="none" stroke-width="1" fill="none" fill-rule="evenodd">
        <g id="SwissFS_Home_Page" transform="translate(-1625.000000, -95.000000)" fill="#000000" fill-rule="nonzero">
            <g id="svg-path" transform="translate(1625.000000, 95.000000)">
                <path d="M8,0 C5.3928544,0 3.07895152,1.26191 1.61718752,3.2 L1.6,3.2 L1.6,3.22187504 C0.59996216,4.55735448 0,6.20830816 0,8 C0,12.4088024 3.59119768,16 8,16 C12.4088024,16 16,12.4088024 16,8 C16,3.59119768 12.4088024,0 8,0 Z M10.4,2.06718752 C12.7480784,3.01388768 14.4,5.30611744 14.4,8 C14.4,9.6702648 13.7604696,11.1826544 12.7187504,12.3203128 C12.5140664,11.6725496 11.9156536,11.2 11.2,11.2 C10.7584,11.2 10.4,10.8416 10.4,10.4 L10.4,8.8 C10.4,8.3584 10.0416,8 9.6,8 L6.4,8 C5.9584,8 5.6,7.6416 5.6,7.2 C5.6,6.7584 5.9584,6.4 6.4,6.4 C6.8416,6.4 7.2,6.0416 7.2,5.6 L7.2,4.8 C7.2,4.3584 7.5584,4 8,4 L8.8,4 C9.684,4 10.4,3.284 10.4,2.4 L10.4,2.06718752 Z M1.76562496,6.5656248 L5.6,10.4 L5.6,11.2 C5.6,12.084 6.316,12.8 7.2,12.8 L7.2,14.3453128 C4.03661752,13.9529232 1.6,11.2725232 1.6,8 C1.6,7.5057504 1.66041936,7.0272272 1.76562496,6.5656248 Z" id="Shape"></path>
            </g>
        </g>
    </g>
</svg>
