<svg width="14" height="20" viewBox="0 0 14 20">
  <g fill="none" fill-rule="evenodd" transform="translate(-5 -2)">
    <path fill="#4A5055" fill-rule="nonzero" d="M11.2641091,20.9884563 C11.2641091,20.9884563 5,12.6719563 5,8.875 C5,5.07804375 8.13400818,2 12,2 C15.8659918,2 19,5.07804375 19,8.875 C19,12.6719563 12.7424964,20.9792 12.7424964,20.9792 C12.3329136,21.5476625 11.6705291,21.5471125 11.2641091,20.9884563 Z M12,10.75 C13.4058164,10.75 14.5454545,9.6307125 14.5454545,8.25 C14.5454545,6.8692875 13.4058164,5.75 12,5.75 C10.5941836,5.75 9.45454545,6.8692875 9.45454545,8.25 C9.45454545,9.6307125 10.5941836,10.75 12,10.75 Z"/>
    <polygon points="0 0 24 0 24 24 0 24"/>
  </g>
</svg>
