<svg width="24" height="24" viewBox="0 0 24 24" fill="none" xmlns="http://www.w3.org/2000/svg">
    <path fill-rule="evenodd" clip-rule="evenodd" d="m2.434 21.651 1.347-4.917a9.47 9.47 0 0 1-1.268-4.745C2.516 6.757 6.773 2.5 12.007 2.5c2.54.001 4.922.99 6.715 2.783a9.433 9.433 0 0 1 2.778 6.714c-.002 5.233-4.261 9.49-9.493 9.49h-.004a9.483 9.483 0 0 1-4.537-1.155l-5.032 1.32z" fill="#fff"/>
    <path fill-rule="evenodd" clip-rule="evenodd" d="M2.433 21.901a.25.25 0 0 1-.24-.315l1.319-4.818a9.74 9.74 0 0 1-1.249-4.778c.002-5.371 4.373-9.74 9.743-9.74a9.683 9.683 0 0 1 6.892 2.856 9.681 9.681 0 0 1 2.851 6.891c-.002 5.37-4.373 9.74-9.743 9.74a9.767 9.767 0 0 1-4.572-1.138l-4.937 1.294a.229.229 0 0 1-.064.008z" fill="#fff"/>
    <path fill-rule="evenodd" clip-rule="evenodd" d="M12.007 2.5c2.54.001 4.922.99 6.715 2.783a9.433 9.433 0 0 1 2.778 6.714c-.002 5.233-4.261 9.49-9.493 9.49h-.004a9.483 9.483 0 0 1-4.537-1.155l-5.032 1.32 1.347-4.918a9.47 9.47 0 0 1-1.268-4.745C2.516 6.757 6.773 2.5 12.007 2.5zm0-.5c-5.508 0-9.991 4.481-9.994 9.99 0 1.683.425 3.342 1.23 4.81l-1.292 4.72a.5.5 0 0 0 .61.616l4.843-1.27a10.013 10.013 0 0 0 4.599 1.122c5.512 0 9.995-4.482 9.997-9.99a9.928 9.928 0 0 0-2.924-7.068A9.934 9.934 0 0 0 12.006 2z" fill="#CFD8DC"/>
    <path fill-rule="evenodd" clip-rule="evenodd" d="M17.587 6.416a7.837 7.837 0 0 0-5.578-2.313c-4.352 0-7.892 3.538-7.894 7.887 0 1.49.417 2.941 1.207 4.198l.188.299-.798 2.91 2.987-.783.288.171a7.875 7.875 0 0 0 4.016 1.1h.003c4.35 0 7.889-3.539 7.89-7.889a7.84 7.84 0 0 0-2.309-5.58z" fill="#40C351"/>
    <path fill-rule="evenodd" clip-rule="evenodd" d="M9.633 8.022c-.177-.395-.364-.403-.534-.41-.138-.006-.296-.005-.454-.005a.872.872 0 0 0-.633.297c-.217.237-.83.81-.83 1.978 0 1.167.85 2.295.968 2.453.119.158 1.641 2.63 4.052 3.58 2.004.79 2.412.633 2.847.594.435-.04 1.403-.574 1.6-1.128.198-.554.198-1.028.14-1.127-.06-.1-.218-.158-.455-.277-.237-.12-1.404-.693-1.621-.772-.218-.079-.376-.118-.534.12-.158.236-.613.77-.751.929-.139.158-.277.178-.514.06-.237-.12-1.001-.37-1.908-1.178-.705-.628-1.18-1.405-1.32-1.642-.138-.237-.014-.366.105-.484.106-.107.237-.277.356-.416.118-.138.158-.237.237-.395.079-.159.04-.297-.02-.416-.059-.119-.52-1.292-.73-1.76z" fill="#fff"/>
</svg>
