<svg width="135" height="40" viewBox="0 0 135 40" fill="none" xmlns="http://www.w3.org/2000/svg">
    <g clip-path="url(#yes42ggo9a)">
        <path fill-rule="evenodd" clip-rule="evenodd" d="M130 40H5.022C2.254 40 0 37.746 0 35V5c0-2.756 2.254-5 5.022-5H130c2.766 0 5.022 2.244 5.022 5v30c0 2.746-2.256 5-5.022 5z" fill="#000"/>
        <path fill-rule="evenodd" clip-rule="evenodd" d="M130 .8c2.322 0 4.222 1.888 4.222 4.2v30c0 2.312-1.888 4.2-4.222 4.2H5.022C2.701 39.2.8 37.312.8 35V5C.8 2.688 2.688.8 5.022.8H130zm0-.8H5.022C2.254 0 0 2.254 0 5v30c0 2.756 2.254 5 5.022 5H130c2.766 0 5.022-2.244 5.022-5V5c0-2.746-2.256-5-5.022-5z" fill="#A6A6A6"/>
        <path d="M68.136 21.752c-2.352 0-4.269 1.788-4.269 4.253 0 2.449 1.917 4.253 4.269 4.253 2.352 0 4.269-1.804 4.269-4.253 0-2.465-1.917-4.253-4.269-4.253zm0 6.831c-1.289 0-2.401-1.063-2.401-2.578 0-1.531 1.112-2.578 2.401-2.578 1.289 0 2.4 1.047 2.4 2.578 0 1.514-1.111 2.578-2.4 2.578zm-9.314-6.831c-2.352 0-4.269 1.788-4.269 4.253 0 2.449 1.917 4.253 4.269 4.253 2.352 0 4.269-1.804 4.269-4.253.001-2.465-1.917-4.253-4.269-4.253zm0 6.831c-1.289 0-2.4-1.063-2.4-2.578 0-1.531 1.112-2.578 2.4-2.578 1.289 0 2.4 1.047 2.4 2.578.001 1.514-1.111 2.578-2.4 2.578zm-11.078-5.526v1.804h4.318c-.129 1.015-.467 1.756-.983 2.272-.628.628-1.611 1.321-3.335 1.321-2.658 0-4.736-2.143-4.736-4.801 0-2.658 2.078-4.801 4.736-4.801 1.434 0 2.481.564 3.254 1.289l1.273-1.273c-1.079-1.031-2.513-1.821-4.527-1.821-3.641 0-6.702 2.964-6.702 6.605 0 3.641 3.061 6.605 6.702 6.605 1.965 0 3.448-.644 4.608-1.853 1.192-1.192 1.563-2.868 1.563-4.221a5.84 5.84 0 0 0-.097-1.128h-6.074v.002zm45.308 1.401c-.354-.951-1.434-2.707-3.641-2.707-2.191 0-4.011 1.724-4.011 4.253 0 2.384 1.804 4.253 4.221 4.253 1.949 0 3.077-1.192 3.544-1.885l-1.45-.967c-.483.709-1.144 1.176-2.094 1.176-.951 0-1.627-.435-2.062-1.289l5.687-2.352-.194-.482zm-5.8 1.418c-.048-1.643 1.273-2.481 2.223-2.481.741 0 1.369.37 1.579.902l-3.802 1.579zM82.628 30h1.869V17.499h-1.869V30zm-3.061-7.298h-.064c-.419-.499-1.224-.951-2.239-.951-2.127 0-4.076 1.869-4.076 4.269 0 2.384 1.949 4.237 4.076 4.237 1.015 0 1.82-.451 2.239-.967h.064v.612c0 1.627-.87 2.497-2.272 2.497-1.144 0-1.853-.822-2.143-1.514l-1.627.677c.467 1.128 1.708 2.513 3.77 2.513 2.191 0 4.044-1.289 4.044-4.43v-7.636h-1.772v.693zm-2.142 5.881c-1.289 0-2.368-1.079-2.368-2.562 0-1.498 1.079-2.594 2.368-2.594 1.273 0 2.271 1.095 2.271 2.594 0 1.482-.998 2.562-2.271 2.562zm24.381-11.084h-4.471V30H99.2v-4.736h2.605c2.068 0 4.101-1.497 4.101-3.882s-2.032-3.883-4.1-3.883zm.048 6.025H99.2v-4.285h2.654c1.395 0 2.187 1.155 2.187 2.143 0 .968-.792 2.142-2.187 2.142zm11.532-1.795c-1.351 0-2.75.595-3.329 1.914l1.657.692c.354-.692 1.013-.917 1.705-.917.965 0 1.946.579 1.962 1.608v.129c-.338-.193-1.062-.483-1.946-.483-1.785 0-3.603.981-3.603 2.815 0 1.673 1.464 2.75 3.104 2.75 1.255 0 1.946-.563 2.38-1.222h.064v.965h1.801v-4.793c0-2.22-1.656-3.458-3.795-3.458zm-.226 6.851c-.611 0-1.464-.306-1.464-1.061 0-.965 1.062-1.335 1.978-1.335.82 0 1.206.177 1.705.418a2.26 2.26 0 0 1-2.219 1.978zm10.583-6.578-2.139 5.42h-.064l-2.219-5.42h-2.01l3.329 7.575-1.898 4.214h1.946l5.131-11.789h-2.076zM106.936 30h1.866V17.499h-1.866V30z" fill="#fff"/>
        <path fill-rule="evenodd" clip-rule="evenodd" d="M73.609 12.224c-.59.607-1.323.909-2.2.909-.877 0-1.61-.303-2.2-.909-.59-.606-.883-1.348-.883-2.225s.294-1.619.884-2.225c.589-.607 1.322-.91 2.199-.91.872 0 1.604.305 2.196.914.592.609.888 1.349.888 2.221 0 .878-.295 1.62-.884 2.225zm-3.83-.502a2.2 2.2 0 0 0 1.63.674c.643 0 1.186-.225 1.63-.674.444-.45.667-1.024.667-1.722s-.223-1.273-.667-1.722a2.199 2.199 0 0 0-1.63-.674c-.643 0-1.186.225-1.63.674-.443.45-.666 1.024-.666 1.722s.223 1.272.666 1.722z" fill="#fff"/>
        <path d="M47.418 10.243c0 .838-.248 1.505-.745 2.003-.564.592-1.3.888-2.204.888-.866 0-1.603-.3-2.208-.9-.606-.601-.91-1.345-.91-2.233 0-.889.304-1.633.91-2.233.605-.601 1.342-.901 2.208-.901.43 0 .84.084 1.23.251.392.168.705.391.939.67l-.527.528c-.397-.475-.944-.712-1.643-.712-.632 0-1.178.222-1.64.666-.46.444-.69 1.02-.69 1.73s.23 1.286.692 1.731a2.282 2.282 0 0 0 1.639.666c.67 0 1.229-.223 1.676-.67.29-.291.458-.696.503-1.215h-2.18V9.79h2.908c.029.157.042.308.042.453zM52.028 7.737h-2.732v1.902h2.464v.721h-2.464v1.902h2.732V13h-3.503V7h3.503v.737zM54.507 13h.77V7.737h1.677V7H52.83v.737h1.676V13zM59.938 13V7h.77v6h-.77zM63.356 13h.77V7.737h1.677V7H61.68v.737h1.676V13zM75.575 7v6h.769V9.262l-.033-1.156h.033L79.394 13h.806V7h-.771v3.512l.033 1.156h-.033L76.513 7h-.938z" fill="#fff"/>
        <path clip-rule="evenodd" d="M73.609 12.224c-.59.607-1.323.909-2.2.909-.877 0-1.61-.303-2.2-.909-.59-.606-.883-1.348-.883-2.225s.294-1.619.884-2.225c.589-.607 1.322-.91 2.199-.91.872 0 1.604.305 2.196.914.592.609.888 1.349.888 2.221 0 .878-.295 1.62-.884 2.225zm-3.83-.502a2.2 2.2 0 0 0 1.63.674c.643 0 1.186-.225 1.63-.674.444-.45.667-1.024.667-1.722s-.223-1.273-.667-1.722a2.199 2.199 0 0 0-1.63-.674c-.643 0-1.186.225-1.63.674-.443.45-.666 1.024-.666 1.722s.223 1.272.666 1.722z" stroke="#fff" stroke-width=".2" stroke-miterlimit="10"/>
        <path d="M47.418 10.243c0 .838-.248 1.505-.745 2.003-.564.592-1.3.888-2.204.888-.866 0-1.603-.3-2.208-.9-.606-.601-.91-1.345-.91-2.233 0-.889.304-1.633.91-2.233.605-.601 1.342-.901 2.208-.901.43 0 .84.084 1.23.251.392.168.705.391.939.67l-.527.528c-.397-.475-.944-.712-1.643-.712-.632 0-1.178.222-1.64.666-.46.444-.69 1.02-.69 1.73s.23 1.286.692 1.731a2.282 2.282 0 0 0 1.639.666c.67 0 1.229-.223 1.676-.67.29-.291.458-.696.503-1.215h-2.18V9.79h2.908c.029.157.042.308.042.453zM52.028 7.737h-2.732v1.902h2.464v.721h-2.464v1.902h2.732V13h-3.503V7h3.503v.737zM54.507 13h.77V7.737h1.677V7H52.83v.737h1.676V13zM59.938 13V7h.77v6h-.77zM63.356 13h.77V7.737h1.677V7H61.68v.737h1.676V13zM75.575 7v6h.769V9.262l-.033-1.156h.033L79.394 13h.806V7h-.771v3.512l.033 1.156h-.033L76.513 7h-.938z" stroke="#fff" stroke-width=".2" stroke-miterlimit="10"/>
        <path d="M10.435 7.538c-.291.308-.463.786-.463 1.405V31.06c0 .62.172 1.097.463 1.405l.074.072 12.389-12.389v-.292l-12.39-12.39-.073.073z" fill="url(#5v88ylezdb)"/>
        <path d="m27.027 24.28-4.129-4.132v-.292l4.13-4.13.093.053 4.893 2.78c1.398.794 1.398 2.093 0 2.888l-4.893 2.78-.094.052z" fill="url(#zbqv6e2k6c)"/>
        <path d="m27.122 24.225-4.223-4.224-12.464 12.463c.46.488 1.22.548 2.078.061l14.609-8.3z" fill="url(#qfa675ztdd)"/>
        <path d="m27.122 15.777-14.608-8.3c-.857-.487-1.617-.426-2.079.061l12.463 12.463 4.224-4.224z" fill="url(#6i4sbprhge)"/>
        <path opacity=".2" d="M27.029 24.132 12.514 32.38c-.812.461-1.538.431-2.004.011l-.075.075.074.072c.466.42 1.192.451 2.004-.01l14.608-8.3-.092-.095z" fill="#000"/>
        <path opacity=".12" d="M10.435 32.318c-.291-.308-.463-.786-.463-1.405v.146c0 .62.172 1.097.463 1.405l.075-.075-.075-.07zM32.014 21.3l-4.986 2.832.093.093 4.893-2.78c.7-.397 1.048-.92 1.048-1.443-.059.473-.415.937-1.048 1.297z" fill="#000"/>
        <path opacity=".25" d="m12.513 7.623 19.5 11.08c.635.36.99.824 1.049 1.298 0-.523-.35-1.047-1.048-1.444L12.513 7.477c-1.398-.794-2.541-.135-2.541 1.466v.147c0-1.601 1.144-2.261 2.54-1.467z" fill="#fff"/>
    </g>
    <defs>
        <linearGradient id="5v88ylezdb" x1="21.799" y1="8.71" x2="5.017" y2="25.492" gradientUnits="userSpaceOnUse">
            <stop stop-color="#00A0FF"/>
            <stop offset=".007" stop-color="#00A1FF"/>
            <stop offset=".26" stop-color="#00BEFF"/>
            <stop offset=".512" stop-color="#00D2FF"/>
            <stop offset=".76" stop-color="#00DFFF"/>
            <stop offset="1" stop-color="#00E3FF"/>
        </linearGradient>
        <linearGradient id="zbqv6e2k6c" x1="33.834" y1="20.002" x2="9.637" y2="20.002" gradientUnits="userSpaceOnUse">
            <stop stop-color="#FFE000"/>
            <stop offset=".409" stop-color="#FFBD00"/>
            <stop offset=".775" stop-color="orange"/>
            <stop offset="1" stop-color="#FF9C00"/>
        </linearGradient>
        <linearGradient id="qfa675ztdd" x1="24.826" y1="22.296" x2="2.068" y2="45.055" gradientUnits="userSpaceOnUse">
            <stop stop-color="#FF3A44"/>
            <stop offset="1" stop-color="#C31162"/>
        </linearGradient>
        <linearGradient id="6i4sbprhge" x1="7.297" y1=".176" x2="17.459" y2="10.339" gradientUnits="userSpaceOnUse">
            <stop stop-color="#32A071"/>
            <stop offset=".069" stop-color="#2DA771"/>
            <stop offset=".476" stop-color="#15CF74"/>
            <stop offset=".801" stop-color="#06E775"/>
            <stop offset="1" stop-color="#00F076"/>
        </linearGradient>
        <clipPath id="yes42ggo9a">
            <path fill="#fff" d="M0 0h135v40H0z"/>
        </clipPath>
    </defs>
</svg>
