<svg width="96" height="96" viewBox="0 0 96 96" fill="none" xmlns="http://www.w3.org/2000/svg">
    <path d="M96 0H0v96h96V0z" fill="#fff"/>
    <path d="M31.136 5.19H28.54v2.594h2.595V5.189zM41.514 5.19h-2.595v2.594h2.595V5.189z" fill="#000"/>
    <path d="M44.108 5.19h-2.594v2.594h2.594V5.189zM46.703 5.19h-2.595v2.594h2.595V5.189zM49.298 5.19h-2.595v2.594h2.595V5.189zM51.892 5.19h-2.594v2.594h2.594V5.189zM54.487 5.19h-2.594v2.594h2.594V5.189z" fill="#000"/>
    <path d="M57.08 5.19h-2.594v2.594h2.595V5.189zM64.865 5.19h-2.594v2.594h2.594V5.189zM67.46 5.19h-2.595v2.594h2.595V5.189zM28.54 7.784h-2.594v2.594h2.595V7.784zM33.73 7.784h-2.594v2.594h2.594V7.784zM36.325 7.784H33.73v2.594h2.595V7.784zM44.108 7.784h-2.594v2.594h2.594V7.784zM46.703 7.784h-2.595v2.594h2.595V7.784zM51.892 7.784h-2.594v2.594h2.594V7.784z" fill="#000"/>
    <path d="M57.08 7.784h-2.594v2.594h2.595V7.784z" fill="#000"/>
    <path d="M59.676 7.784H57.08v2.594h2.595V7.784zM62.27 7.784h-2.594v2.594h2.594V7.784zM64.865 7.784h-2.594v2.594h2.594V7.784zM67.46 7.784h-2.595v2.594h2.595V7.784zM31.136 10.378H28.54v2.595h2.595v-2.595zM41.514 10.378h-2.595v2.595h2.595v-2.595z" fill="#000"/>
    <path d="M44.108 10.378h-2.594v2.595h2.594v-2.595zM49.298 10.378h-2.595v2.595h2.595v-2.595zM57.08 10.378h-2.594v2.595h2.595v-2.595zM64.865 10.378h-2.594v2.595h2.594v-2.595zM67.46 10.378h-2.595v2.595h2.595v-2.595zM33.73 12.973h-2.594v2.595h2.594v-2.595zM38.919 12.973h-2.595v2.595h2.595v-2.595zM41.514 12.973h-2.595v2.595h2.595v-2.595z" fill="#000"/>
    <path d="M44.108 12.973h-2.594v2.595h2.594v-2.595zM46.703 12.973h-2.595v2.595h2.595v-2.595zM59.676 12.973H57.08v2.595h2.595v-2.595zM28.54 15.568h-2.594v2.594h2.595v-2.594z" fill="#000"/>
    <path d="M31.136 15.568H28.54v2.594h2.595v-2.594z" fill="#000"/>
    <path d="M33.73 15.568h-2.594v2.594h2.594v-2.594zM36.325 15.568H33.73v2.594h2.595v-2.594zM41.514 15.568h-2.595v2.594h2.595v-2.594z" fill="#000"/>
    <path d="M44.108 15.568h-2.594v2.594h2.594v-2.594zM49.298 15.568h-2.595v2.594h2.595v-2.594zM51.892 15.568h-2.594v2.594h2.594v-2.594zM57.08 15.568h-2.594v2.594h2.595v-2.594z" fill="#000"/>
    <path d="M59.676 15.568H57.08v2.594h2.595v-2.594zM67.46 15.568h-2.595v2.594h2.595v-2.594zM31.136 18.162H28.54v2.595h2.595v-2.595zM44.108 18.162h-2.594v2.595h2.594v-2.595zM46.703 18.162h-2.595v2.595h2.595v-2.595zM51.892 18.162h-2.594v2.595h2.594v-2.595zM54.487 18.162h-2.594v2.595h2.594v-2.595z" fill="#000"/>
    <path d="M57.08 18.162h-2.594v2.595h2.595v-2.595z" fill="#000"/>
    <path d="M59.676 18.162H57.08v2.595h2.595v-2.595zM62.27 18.162h-2.594v2.595h2.594v-2.595zM67.46 18.162h-2.595v2.595h2.595v-2.595zM70.055 18.162H67.46v2.595h2.595v-2.595zM28.54 20.757h-2.594v2.594h2.595v-2.594zM33.73 20.757h-2.594v2.594h2.594v-2.594zM38.919 20.757h-2.595v2.594h2.595v-2.594zM44.108 20.757h-2.594v2.594h2.594v-2.594zM49.298 20.757h-2.595v2.594h2.595v-2.594zM54.487 20.757h-2.594v2.594h2.594v-2.594zM59.676 20.757H57.08v2.594h2.595v-2.594zM64.865 20.757h-2.594v2.594h2.594v-2.594zM70.055 20.757H67.46v2.594h2.595v-2.594z" fill="#000"/>
    <path d="M31.136 23.351H28.54v2.595h2.595v-2.595z" fill="#000"/>
    <path d="M33.73 23.351h-2.594v2.595h2.594v-2.595zM36.325 23.351H33.73v2.595h2.595v-2.595zM41.514 23.351h-2.595v2.595h2.595v-2.595z" fill="#000"/>
    <path d="M44.108 23.351h-2.594v2.595h2.594v-2.595zM49.298 23.351h-2.595v2.595h2.595v-2.595zM51.892 23.351h-2.594v2.595h2.594v-2.595zM54.487 23.351h-2.594v2.595h2.594v-2.595z" fill="#000"/>
    <path d="M57.08 23.351h-2.594v2.595h2.595v-2.595z" fill="#000"/>
    <path d="M59.676 23.351H57.08v2.595h2.595v-2.595zM62.27 23.351h-2.594v2.595h2.594v-2.595zM64.865 23.351h-2.594v2.595h2.594v-2.595zM67.46 23.351h-2.595v2.595h2.595v-2.595zM7.784 25.946H5.189v2.595h2.595v-2.595zM12.973 25.946H10.38v2.595h2.595v-2.595zM18.162 25.946h-2.595v2.595h2.595v-2.595zM23.351 25.946h-2.594v2.595h2.594v-2.595zM31.136 25.946H28.54v2.595h2.595v-2.595zM38.919 25.946h-2.595v2.595h2.595v-2.595zM41.514 25.946h-2.595v2.595h2.595v-2.595zM46.703 25.946h-2.595v2.595h2.595v-2.595zM51.892 25.946h-2.594v2.595h2.594v-2.595zM54.487 25.946h-2.594v2.595h2.594v-2.595zM59.676 25.946H57.08v2.595h2.595v-2.595zM62.27 25.946h-2.594v2.595h2.594v-2.595zM67.46 25.946h-2.595v2.595h2.595v-2.595zM70.055 25.946H67.46v2.595h2.595v-2.595zM80.433 25.946h-2.595v2.595h2.595v-2.595zM88.217 25.946h-2.595v2.595h2.595v-2.595z" fill="#000"/>
    <path d="M7.784 28.54H5.189v2.595h2.595v-2.594z" fill="#000"/>
    <path d="M10.379 28.54H7.784v2.595h2.595v-2.594zM12.973 28.54H10.38v2.595h2.595v-2.594zM25.946 28.54h-2.594v2.595h2.594v-2.594zM31.136 28.54H28.54v2.595h2.595v-2.594zM36.325 28.54H33.73v2.595h2.595v-2.594zM41.514 28.54h-2.595v2.595h2.595v-2.594zM49.298 28.54h-2.595v2.595h2.595v-2.594zM51.892 28.54h-2.594v2.595h2.594v-2.594zM59.676 28.54H57.08v2.595h2.595v-2.594zM62.27 28.54h-2.594v2.595h2.594v-2.594zM64.865 28.54h-2.594v2.595h2.594v-2.594zM72.65 28.54h-2.595v2.595h2.594v-2.594z" fill="#000"/>
    <path d="M75.243 28.54h-2.595v2.595h2.595v-2.594zM77.838 28.54h-2.595v2.595h2.595v-2.594zM88.217 28.54h-2.595v2.595h2.595v-2.594zM90.811 28.54h-2.594v2.595h2.594v-2.594zM7.784 31.135H5.189v2.595h2.595v-2.595zM15.568 31.135h-2.594v2.595h2.594v-2.595zM23.351 31.135h-2.594v2.595h2.594v-2.595zM25.946 31.135h-2.594v2.595h2.594v-2.595zM33.73 31.135h-2.594v2.595h2.594v-2.595zM44.108 31.135h-2.594v2.595h2.594v-2.595zM49.298 31.135h-2.595v2.595h2.595v-2.595zM51.892 31.135h-2.594v2.595h2.594v-2.595zM72.65 31.135h-2.595v2.595h2.594v-2.595z" fill="#000"/>
    <path d="M75.243 31.135h-2.595v2.595h2.595v-2.595zM77.838 31.135h-2.595v2.595h2.595v-2.595zM85.622 31.135h-2.595v2.595h2.595v-2.595zM88.217 31.135h-2.595v2.595h2.595v-2.595zM90.811 31.135h-2.594v2.595h2.594v-2.595zM12.973 33.73H10.38v2.594h2.595V33.73z" fill="#000"/>
    <path d="M15.568 33.73h-2.594v2.594h2.594V33.73zM28.54 33.73h-2.594v2.594h2.595V33.73z" fill="#000"/>
    <path d="M31.136 33.73H28.54v2.594h2.595V33.73zM41.514 33.73h-2.595v2.594h2.595V33.73z" fill="#000"/>
    <path d="M44.108 33.73h-2.594v2.594h2.594V33.73zM46.703 33.73h-2.595v2.594h2.595V33.73zM51.892 33.73h-2.594v2.594h2.594V33.73zM62.27 33.73h-2.594v2.594h2.594V33.73zM80.433 33.73h-2.595v2.594h2.595V33.73zM88.217 33.73h-2.595v2.594h2.595V33.73zM10.379 36.324H7.784v2.595h2.595v-2.595zM15.568 36.324h-2.594v2.595h2.594v-2.595z" fill="#000"/>
    <path d="M18.162 36.324h-2.595v2.595h2.595v-2.595zM23.351 36.324h-2.594v2.595h2.594v-2.595zM28.54 36.324h-2.594v2.595h2.595v-2.595zM33.73 36.324h-2.594v2.595h2.594v-2.595zM44.108 36.324h-2.594v2.595h2.594v-2.595zM49.298 36.324h-2.595v2.595h2.595v-2.595zM51.892 36.324h-2.594v2.595h2.594v-2.595zM54.487 36.324h-2.594v2.595h2.594v-2.595zM62.27 36.324h-2.594v2.595h2.594v-2.595zM64.865 36.324h-2.594v2.595h2.594v-2.595zM70.055 36.324H67.46v2.595h2.595v-2.595zM72.65 36.324h-2.595v2.595h2.594v-2.595z" fill="#000"/>
    <path d="M75.243 36.324h-2.595v2.595h2.595v-2.595zM83.027 36.324h-2.594v2.595h2.594v-2.595zM88.217 36.324h-2.595v2.595h2.595v-2.595zM90.811 36.324h-2.594v2.595h2.594v-2.595zM7.784 38.919H5.189v2.595h2.595v-2.595z" fill="#000"/>
    <path d="M10.379 38.919H7.784v2.595h2.595v-2.595zM15.568 38.919h-2.594v2.595h2.594v-2.595z" fill="#000"/>
    <path d="M18.162 38.919h-2.595v2.595h2.595v-2.595zM20.757 38.919h-2.595v2.595h2.595v-2.595zM31.136 38.919H28.54v2.595h2.595v-2.595z" fill="#000"/>
    <path d="M33.73 38.919h-2.594v2.595h2.594v-2.595zM41.514 38.919h-2.595v2.595h2.595v-2.595z" fill="#000"/>
    <path d="M44.108 38.919h-2.594v2.595h2.594v-2.595zM49.298 38.919h-2.595v2.595h2.595v-2.595zM54.487 38.919h-2.594v2.595h2.594v-2.595zM62.27 38.919h-2.594v2.595h2.594v-2.595zM64.865 38.919h-2.594v2.595h2.594v-2.595zM70.055 38.919H67.46v2.595h2.595v-2.595zM75.243 38.919h-2.595v2.595h2.595v-2.595zM83.027 38.919h-2.594v2.595h2.594v-2.595zM90.811 38.919h-2.594v2.595h2.594v-2.595zM10.379 41.514H7.784v2.594h2.595v-2.594zM20.757 41.514h-2.595v2.594h2.595v-2.594z" fill="#000"/>
    <path d="M23.351 41.514h-2.594v2.594h2.594v-2.594zM25.946 41.514h-2.594v2.594h2.594v-2.594z" fill="#000"/>
    <path d="M28.54 41.514h-2.594v2.594h2.595v-2.594zM36.325 41.514H33.73v2.594h2.595v-2.594z" fill="#000"/>
    <path d="M38.919 41.514h-2.595v2.594h2.595v-2.594zM41.514 41.514h-2.595v2.594h2.595v-2.594z" fill="#000"/>
    <path d="M44.108 41.514h-2.594v2.594h2.594v-2.594zM51.892 41.514h-2.594v2.594h2.594v-2.594zM59.676 41.514H57.08v2.594h2.595v-2.594zM64.865 41.514h-2.594v2.594h2.594v-2.594zM72.65 41.514h-2.595v2.594h2.594v-2.594zM80.433 41.514h-2.595v2.594h2.595v-2.594zM83.027 41.514h-2.594v2.594h2.594v-2.594zM85.622 41.514h-2.595v2.594h2.595v-2.594zM88.217 41.514h-2.595v2.594h2.595v-2.594zM90.811 41.514h-2.594v2.594h2.594v-2.594zM7.784 44.108H5.189v2.595h2.595v-2.595z" fill="#000"/>
    <path d="M10.379 44.108H7.784v2.595h2.595v-2.595zM12.973 44.108H10.38v2.595h2.595v-2.595zM18.162 44.108h-2.595v2.595h2.595v-2.595zM20.757 44.108h-2.595v2.595h2.595v-2.595zM28.54 44.108h-2.594v2.595h2.595v-2.595z" fill="#000"/>
    <path d="M31.136 44.108H28.54v2.595h2.595v-2.595z" fill="#000"/>
    <path d="M33.73 44.108h-2.594v2.595h2.594v-2.595zM36.325 44.108H33.73v2.595h2.595v-2.595zM44.108 44.108h-2.594v2.595h2.594v-2.595zM46.703 44.108h-2.595v2.595h2.595v-2.595zM49.298 44.108h-2.595v2.595h2.595v-2.595zM51.892 44.108h-2.594v2.595h2.594v-2.595zM54.487 44.108h-2.594v2.595h2.594v-2.595zM62.27 44.108h-2.594v2.595h2.594v-2.595zM70.055 44.108H67.46v2.595h2.595v-2.595zM75.243 44.108h-2.595v2.595h2.595v-2.595zM88.217 44.108h-2.595v2.595h2.595v-2.595zM10.379 46.703H7.784v2.594h2.595v-2.594zM15.568 46.703h-2.594v2.594h2.594v-2.594z" fill="#000"/>
    <path d="M18.162 46.703h-2.595v2.594h2.595v-2.594zM20.757 46.703h-2.595v2.594h2.595v-2.594z" fill="#000"/>
    <path d="M23.351 46.703h-2.594v2.594h2.594v-2.594zM31.136 46.703H28.54v2.594h2.595v-2.594zM36.325 46.703H33.73v2.594h2.595v-2.594zM41.514 46.703h-2.595v2.594h2.595v-2.594zM51.892 46.703h-2.594v2.594h2.594v-2.594zM59.676 46.703H57.08v2.594h2.595v-2.594zM62.27 46.703h-2.594v2.594h2.594v-2.594zM67.46 46.703h-2.595v2.594h2.595v-2.594zM72.65 46.703h-2.595v2.594h2.594v-2.594z" fill="#000"/>
    <path d="M75.243 46.703h-2.595v2.594h2.595v-2.594zM83.027 46.703h-2.594v2.594h2.594v-2.594zM7.784 49.297H5.189v2.595h2.595v-2.595zM12.973 49.297H10.38v2.595h2.595v-2.595z" fill="#000"/>
    <path d="M15.568 49.297h-2.594v2.595h2.594v-2.595zM20.757 49.297h-2.595v2.595h2.595v-2.595zM25.946 49.297h-2.594v2.595h2.594v-2.595z" fill="#000"/>
    <path d="M28.54 49.297h-2.594v2.595h2.595v-2.595zM36.325 49.297H33.73v2.595h2.595v-2.595z" fill="#000"/>
    <path d="M38.919 49.297h-2.595v2.595h2.595v-2.595zM41.514 49.297h-2.595v2.595h2.595v-2.595zM49.298 49.297h-2.595v2.595h2.595v-2.595zM54.487 49.297h-2.594v2.595h2.594v-2.595zM59.676 49.297H57.08v2.595h2.595v-2.595zM64.865 49.297h-2.594v2.595h2.594v-2.595zM70.055 49.297H67.46v2.595h2.595v-2.595zM72.65 49.297h-2.595v2.595h2.594v-2.595z" fill="#000"/>
    <path d="M75.243 49.297h-2.595v2.595h2.595v-2.595zM77.838 49.297h-2.595v2.595h2.595v-2.595zM90.811 49.297h-2.594v2.595h2.594v-2.595zM7.784 51.892H5.189v2.594h2.595v-2.594zM15.568 51.892h-2.594v2.594h2.594v-2.594zM23.351 51.892h-2.594v2.594h2.594v-2.594zM25.946 51.892h-2.594v2.594h2.594v-2.594z" fill="#000"/>
    <path d="M28.54 51.892h-2.594v2.594h2.595v-2.594zM51.892 51.892h-2.594v2.594h2.594v-2.594zM59.676 51.892H57.08v2.594h2.595v-2.594zM64.865 51.892h-2.594v2.594h2.594v-2.594zM70.055 51.892H67.46v2.594h2.595v-2.594zM75.243 51.892h-2.595v2.594h2.595v-2.594zM85.622 51.892h-2.595v2.594h2.595v-2.594zM88.217 51.892h-2.595v2.594h2.595v-2.594zM90.811 51.892h-2.594v2.594h2.594v-2.594zM7.784 54.486H5.189v2.595h2.595v-2.595zM20.757 54.486h-2.595v2.595h2.595v-2.595z" fill="#000"/>
    <path d="M31.136 54.486H28.54v2.595h2.595v-2.595z" fill="#000"/>
    <path d="M33.73 54.486h-2.594v2.595h2.594v-2.595zM36.325 54.486H33.73v2.595h2.595v-2.595z" fill="#000"/>
    <path d="M38.919 54.486h-2.595v2.595h2.595v-2.595zM41.514 54.486h-2.595v2.595h2.595v-2.595z" fill="#000"/>
    <path d="M44.108 54.486h-2.594v2.595h2.594v-2.595zM46.703 54.486h-2.595v2.595h2.595v-2.595zM51.892 54.486h-2.594v2.595h2.594v-2.595zM54.487 54.486h-2.594v2.595h2.594v-2.595zM59.676 54.486H57.08v2.595h2.595v-2.595zM62.27 54.486h-2.594v2.595h2.594v-2.595zM64.865 54.486h-2.594v2.595h2.594v-2.595zM67.46 54.486h-2.595v2.595h2.595v-2.595zM72.65 54.486h-2.595v2.595h2.594v-2.595z" fill="#000"/>
    <path d="M75.243 54.486h-2.595v2.595h2.595v-2.595zM77.838 54.486h-2.595v2.595h2.595v-2.595zM80.433 54.486h-2.595v2.595h2.595v-2.595zM10.379 57.081H7.784v2.595h2.595V57.08zM12.973 57.081H10.38v2.595h2.595V57.08z" fill="#000"/>
    <path d="M15.568 57.081h-2.594v2.595h2.594V57.08zM20.757 57.081h-2.595v2.595h2.595V57.08z" fill="#000"/>
    <path d="M23.351 57.081h-2.594v2.595h2.594V57.08zM25.946 57.081h-2.594v2.595h2.594V57.08zM31.136 57.081H28.54v2.595h2.595V57.08z" fill="#000"/>
    <path d="M33.73 57.081h-2.594v2.595h2.594V57.08zM36.325 57.081H33.73v2.595h2.595V57.08z" fill="#000"/>
    <path d="M38.919 57.081h-2.595v2.595h2.595V57.08zM41.514 57.081h-2.595v2.595h2.595V57.08zM49.298 57.081h-2.595v2.595h2.595V57.08zM51.892 57.081h-2.594v2.595h2.594V57.08zM57.08 57.081h-2.594v2.595h2.595V57.08zM62.27 57.081h-2.594v2.595h2.594V57.08zM64.865 57.081h-2.594v2.595h2.594V57.08zM70.055 57.081H67.46v2.595h2.595V57.08zM75.243 57.081h-2.595v2.595h2.595V57.08zM83.027 57.081h-2.594v2.595h2.594V57.08zM88.217 57.081h-2.595v2.595h2.595V57.08zM90.811 57.081h-2.594v2.595h2.594V57.08zM10.379 59.676H7.784v2.594h2.595v-2.594zM12.973 59.676H10.38v2.594h2.595v-2.594z" fill="#000"/>
    <path d="M15.568 59.676h-2.594v2.594h2.594v-2.594z" fill="#000"/>
    <path d="M18.162 59.676h-2.595v2.594h2.595v-2.594zM20.757 59.676h-2.595v2.594h2.595v-2.594zM28.54 59.676h-2.594v2.594h2.595v-2.594z" fill="#000"/>
    <path d="M31.136 59.676H28.54v2.594h2.595v-2.594zM41.514 59.676h-2.595v2.594h2.595v-2.594z" fill="#000"/>
    <path d="M44.108 59.676h-2.594v2.594h2.594v-2.594zM49.298 59.676h-2.595v2.594h2.595v-2.594zM51.892 59.676h-2.594v2.594h2.594v-2.594zM62.27 59.676h-2.594v2.594h2.594v-2.594zM64.865 59.676h-2.594v2.594h2.594v-2.594zM72.65 59.676h-2.595v2.594h2.594v-2.594z" fill="#000"/>
    <path d="M75.243 59.676h-2.595v2.594h2.595v-2.594zM88.217 59.676h-2.595v2.594h2.595v-2.594zM90.811 59.676h-2.594v2.594h2.594v-2.594zM7.784 62.27H5.189v2.595h2.595V62.27zM23.351 62.27h-2.594v2.595h2.594V62.27zM25.946 62.27h-2.594v2.595h2.594V62.27zM31.136 62.27H28.54v2.595h2.595V62.27zM36.325 62.27H33.73v2.595h2.595V62.27zM44.108 62.27h-2.594v2.595h2.594V62.27zM64.865 62.27h-2.594v2.595h2.594V62.27zM70.055 62.27H67.46v2.595h2.595V62.27zM75.243 62.27h-2.595v2.595h2.595V62.27zM77.838 62.27h-2.595v2.595h2.595V62.27zM80.433 62.27h-2.595v2.595h2.595V62.27zM85.622 62.27h-2.595v2.595h2.595V62.27zM88.217 62.27h-2.595v2.595h2.595V62.27zM90.811 62.27h-2.594v2.595h2.594V62.27z" fill="#000"/>
    <path d="M10.379 64.865H7.784v2.595h2.595v-2.595zM12.973 64.865H10.38v2.595h2.595v-2.595zM18.162 64.865h-2.595v2.595h2.595v-2.595zM31.136 64.865H28.54v2.595h2.595v-2.595zM41.514 64.865h-2.595v2.595h2.595v-2.595z" fill="#000"/>
    <path d="M44.108 64.865h-2.594v2.595h2.594v-2.595zM46.703 64.865h-2.595v2.595h2.595v-2.595zM49.298 64.865h-2.595v2.595h2.595v-2.595zM51.892 64.865h-2.594v2.595h2.594v-2.595zM54.487 64.865h-2.594v2.595h2.594v-2.595z" fill="#000"/>
    <path d="M57.08 64.865h-2.594v2.595h2.595v-2.595zM62.27 64.865h-2.594v2.595h2.594v-2.595zM67.46 64.865h-2.595v2.595h2.595v-2.595zM70.055 64.865H67.46v2.595h2.595v-2.595zM77.838 64.865h-2.595v2.595h2.595v-2.595zM88.217 64.865h-2.595v2.595h2.595v-2.595zM7.784 67.46H5.189v2.594h2.595V67.46zM23.351 67.46h-2.594v2.594h2.594V67.46zM31.136 67.46H28.54v2.594h2.595V67.46z" fill="#000"/>
    <path d="M33.73 67.46h-2.594v2.594h2.594V67.46zM46.703 67.46h-2.595v2.594h2.595V67.46zM49.298 67.46h-2.595v2.594h2.595V67.46zM51.892 67.46h-2.594v2.594h2.594V67.46zM59.676 67.46H57.08v2.594h2.595V67.46zM62.27 67.46h-2.594v2.594h2.594V67.46zM70.055 67.46H67.46v2.594h2.595V67.46zM72.65 67.46h-2.595v2.594h2.594V67.46z" fill="#000"/>
    <path d="M75.243 67.46h-2.595v2.594h2.595V67.46zM77.838 67.46h-2.595v2.594h2.595V67.46zM80.433 67.46h-2.595v2.594h2.595V67.46zM83.027 67.46h-2.594v2.594h2.594V67.46zM88.217 67.46h-2.595v2.594h2.595V67.46zM28.54 70.054h-2.594v2.595h2.595v-2.595z" fill="#000"/>
    <path d="M31.136 70.054H28.54v2.595h2.595v-2.595z" fill="#000"/>
    <path d="M33.73 70.054h-2.594v2.595h2.594v-2.595zM36.325 70.054H33.73v2.595h2.595v-2.595z" fill="#000"/>
    <path d="M38.919 70.054h-2.595v2.595h2.595v-2.595zM41.514 70.054h-2.595v2.595h2.595v-2.595z" fill="#000"/>
    <path d="M44.108 70.054h-2.594v2.595h2.594v-2.595zM49.298 70.054h-2.595v2.595h2.595v-2.595zM54.487 70.054h-2.594v2.595h2.594v-2.595zM62.27 70.054h-2.594v2.595h2.594v-2.595zM70.055 70.054H67.46v2.595h2.595v-2.595zM80.433 70.054h-2.595v2.595h2.595v-2.595zM83.027 70.054h-2.594v2.595h2.594v-2.595zM88.217 70.054h-2.595v2.595h2.595v-2.595zM90.811 70.054h-2.594v2.595h2.594v-2.595zM38.919 72.649h-2.595v2.594h2.595V72.65zM41.514 72.649h-2.595v2.594h2.595V72.65zM54.487 72.649h-2.594v2.594h2.594V72.65zM62.27 72.649h-2.594v2.594h2.594V72.65zM67.46 72.649h-2.595v2.594h2.595V72.65zM70.055 72.649H67.46v2.594h2.595V72.65zM75.243 72.649h-2.595v2.594h2.595V72.65zM80.433 72.649h-2.595v2.594h2.595V72.65zM85.622 72.649h-2.595v2.594h2.595V72.65zM88.217 72.649h-2.595v2.594h2.595V72.65zM90.811 72.649h-2.594v2.594h2.594V72.65zM41.514 75.243h-2.595v2.595h2.595v-2.595zM49.298 75.243h-2.595v2.595h2.595v-2.595zM51.892 75.243h-2.594v2.595h2.594v-2.595zM57.08 75.243h-2.594v2.595h2.595v-2.595z" fill="#000"/>
    <path d="M59.676 75.243H57.08v2.595h2.595v-2.595zM62.27 75.243h-2.594v2.595h2.594v-2.595zM70.055 75.243H67.46v2.595h2.595v-2.595zM80.433 75.243h-2.595v2.595h2.595v-2.595zM28.54 77.838h-2.594v2.595h2.595v-2.595z" fill="#000"/>
    <path d="M31.136 77.838H28.54v2.595h2.595v-2.595zM36.325 77.838H33.73v2.595h2.595v-2.595z" fill="#000"/>
    <path d="M38.919 77.838h-2.595v2.595h2.595v-2.595zM44.108 77.838h-2.594v2.595h2.594v-2.595zM46.703 77.838h-2.595v2.595h2.595v-2.595zM51.892 77.838h-2.594v2.595h2.594v-2.595zM62.27 77.838h-2.594v2.595h2.594v-2.595zM64.865 77.838h-2.594v2.595h2.594v-2.595zM70.055 77.838H67.46v2.595h2.595v-2.595zM72.65 77.838h-2.595v2.595h2.594v-2.595z" fill="#000"/>
    <path d="M75.243 77.838h-2.595v2.595h2.595v-2.595zM77.838 77.838h-2.595v2.595h2.595v-2.595zM80.433 77.838h-2.595v2.595h2.595v-2.595zM83.027 77.838h-2.594v2.595h2.594v-2.595zM88.217 77.838h-2.595v2.595h2.595v-2.595zM36.325 80.432H33.73v2.595h2.595v-2.595zM51.892 80.432h-2.594v2.595h2.594v-2.595zM64.865 80.432h-2.594v2.595h2.594v-2.595zM67.46 80.432h-2.595v2.595h2.595v-2.595z" fill="#000"/>
    <path d="M80.433 80.432h-2.595v2.595h2.595v-2.595zM83.027 80.432h-2.594v2.595h2.594v-2.595zM90.811 80.432h-2.594v2.595h2.594v-2.595zM28.54 83.027h-2.594v2.595h2.595v-2.595zM33.73 83.027h-2.594v2.595h2.594v-2.595zM36.325 83.027H33.73v2.595h2.595v-2.595z" fill="#000"/>
    <path d="M38.919 83.027h-2.595v2.595h2.595v-2.595zM41.514 83.027h-2.595v2.595h2.595v-2.595z" fill="#000"/>
    <path d="M44.108 83.027h-2.594v2.595h2.594v-2.595zM49.298 83.027h-2.595v2.595h2.595v-2.595zM51.892 83.027h-2.594v2.595h2.594v-2.595zM54.487 83.027h-2.594v2.595h2.594v-2.595zM59.676 83.027H57.08v2.595h2.595v-2.595zM70.055 83.027H67.46v2.595h2.595v-2.595zM72.65 83.027h-2.595v2.595h2.594v-2.595zM80.433 83.027h-2.595v2.595h2.595v-2.595zM90.811 83.027h-2.594v2.595h2.594v-2.595zM33.73 85.622h-2.594v2.594h2.594v-2.594zM44.108 85.622h-2.594v2.594h2.594v-2.594zM46.703 85.622h-2.595v2.594h2.595v-2.594zM49.298 85.622h-2.595v2.594h2.595v-2.594zM51.892 85.622h-2.594v2.594h2.594v-2.594zM54.487 85.622h-2.594v2.594h2.594v-2.594zM62.27 85.622h-2.594v2.594h2.594v-2.594zM70.055 85.622H67.46v2.594h2.595v-2.594zM75.243 85.622h-2.595v2.594h2.595v-2.594zM80.433 85.622h-2.595v2.594h2.595v-2.594zM88.217 85.622h-2.595v2.594h2.595v-2.594zM28.54 88.216h-2.594v2.595h2.595v-2.595zM36.325 88.216H33.73v2.595h2.595v-2.595zM46.703 88.216h-2.595v2.595h2.595v-2.595zM49.298 88.216h-2.595v2.595h2.595v-2.595zM51.892 88.216h-2.594v2.595h2.594v-2.595zM54.487 88.216h-2.594v2.595h2.594v-2.595zM59.676 88.216H57.08v2.595h2.595v-2.595zM62.27 88.216h-2.594v2.595h2.594v-2.595zM70.055 88.216H67.46v2.595h2.595v-2.595zM72.65 88.216h-2.595v2.595h2.594v-2.595z" fill="#000"/>
    <path d="M75.243 88.216h-2.595v2.595h2.595v-2.595zM80.433 88.216h-2.595v2.595h2.595v-2.595zM88.217 88.216h-2.595v2.595h2.595v-2.595zM90.811 88.216h-2.594v2.595h2.594v-2.595zM20.627 5.19H5.19V23.35h18.163V5.19h-2.725zm0 15.437H7.914V7.914h12.713v12.713zM88.086 5.19H72.648V23.35h18.163V5.19h-2.725zm0 15.437H75.373V7.914h12.713v12.713zM20.627 72.649H5.19V90.81h18.163V72.649h-2.725zm0 15.438H7.914V75.373h12.713v12.713z" fill="#000"/>
    <path d="M18.163 10.378h-7.784v7.784h7.784v-7.784zM85.622 10.378h-7.784v7.784h7.784v-7.784zM18.163 77.838h-7.784v7.784h7.784v-7.784z" fill="#000"/>
</svg>
