<svg width="96" height="96" viewBox="0 0 96 96" fill="none" xmlns="http://www.w3.org/2000/svg">
    <path d="M96 0H0v96h96V0z" fill="#fff"/>
    <path d="M25.756 4.683h-2.342v2.341h2.341V4.683zM28.097 4.683h-2.341v2.341h2.341V4.683zM37.464 4.683h-2.342v2.341h2.342V4.683z" fill="#000"/>
    <path d="M39.804 4.683h-2.341v2.341h2.341V4.683zM44.488 4.683h-2.341v2.341h2.34V4.683zM56.195 4.683h-2.342v2.341h2.342V4.683zM60.878 4.683h-2.342v2.341h2.342V4.683zM65.56 4.683H63.22v2.341h2.341V4.683zM72.585 4.683h-2.342v2.341h2.342V4.683zM25.756 7.024h-2.342v2.342h2.341V7.024zM28.097 7.024h-2.341v2.342h2.341V7.024zM35.122 7.024H32.78v2.342h2.342V7.024zM37.464 7.024h-2.342v2.342h2.342V7.024z" fill="#000"/>
    <path d="M39.804 7.024h-2.341v2.342h2.341V7.024zM42.146 7.024h-2.341v2.342h2.341V7.024zM44.488 7.024h-2.341v2.342h2.34V7.024zM56.195 7.024h-2.342v2.342h2.342V7.024zM60.878 7.024h-2.342v2.342h2.342V7.024zM65.56 7.024H63.22v2.342h2.341V7.024zM30.44 9.366h-2.342v2.341h2.341V9.366z" fill="#000"/>
    <path d="M32.78 9.366h-2.341v2.341h2.34V9.366zM35.122 9.366H32.78v2.341h2.342V9.366zM42.146 9.366h-2.341v2.341h2.341V9.366zM44.488 9.366h-2.341v2.341h2.34V9.366zM49.17 9.366h-2.34v2.341h2.34V9.366zM51.512 9.366h-2.341v2.341h2.341V9.366zM60.878 9.366h-2.342v2.341h2.342V9.366zM65.56 9.366H63.22v2.341h2.341V9.366zM67.902 9.366h-2.341v2.341h2.341V9.366zM25.756 11.707h-2.342v2.342h2.341v-2.342zM28.097 11.707h-2.341v2.342h2.341v-2.342zM32.78 11.707h-2.341v2.342h2.34v-2.342zM35.122 11.707H32.78v2.342h2.342v-2.342zM39.804 11.707h-2.341v2.342h2.341v-2.342zM42.146 11.707h-2.341v2.342h2.341v-2.342zM44.488 11.707h-2.341v2.342h2.34v-2.342z" fill="#000"/>
    <path d="M46.829 11.707h-2.342v2.342h2.342v-2.342zM49.17 11.707h-2.34v2.342h2.34v-2.342zM53.853 11.707h-2.341v2.342h2.341v-2.342zM58.536 11.707h-2.342v2.342h2.342v-2.342zM65.56 11.707H63.22v2.342h2.341v-2.342zM67.902 11.707h-2.341v2.342h2.341v-2.342zM70.244 11.707h-2.342v2.342h2.342v-2.342zM32.78 14.049h-2.341v2.341h2.34V14.05zM37.464 14.049h-2.342v2.341h2.342V14.05z" fill="#000"/>
    <path d="M39.804 14.049h-2.341v2.341h2.341V14.05zM44.488 14.049h-2.341v2.341h2.34V14.05zM51.512 14.049h-2.341v2.341h2.341V14.05zM58.536 14.049h-2.342v2.341h2.342V14.05zM63.22 14.049h-2.342v2.341h2.341V14.05zM67.902 14.049h-2.341v2.341h2.341V14.05zM70.244 14.049h-2.342v2.341h2.342V14.05z" fill="#000"/>
    <path d="M72.585 14.049h-2.342v2.341h2.342V14.05zM28.097 16.39h-2.341v2.342h2.341V16.39zM30.44 16.39h-2.342v2.342h2.341V16.39z" fill="#000"/>
    <path d="M32.78 16.39h-2.341v2.342h2.34V16.39zM35.122 16.39H32.78v2.342h2.342V16.39zM44.488 16.39h-2.341v2.342h2.34V16.39z" fill="#000"/>
    <path d="M46.829 16.39h-2.342v2.342h2.342V16.39zM49.17 16.39h-2.34v2.342h2.34V16.39zM51.512 16.39h-2.341v2.342h2.341V16.39zM58.536 16.39h-2.342v2.342h2.342V16.39zM63.22 16.39h-2.342v2.342h2.341V16.39zM65.56 16.39H63.22v2.342h2.341V16.39zM67.902 16.39h-2.341v2.342h2.341V16.39zM25.756 18.732h-2.342v2.341h2.341v-2.341zM30.44 18.732h-2.342v2.341h2.341v-2.341zM35.122 18.732H32.78v2.341h2.342v-2.341zM39.804 18.732h-2.341v2.341h2.341v-2.341zM44.488 18.732h-2.341v2.341h2.34v-2.341zM49.17 18.732h-2.34v2.341h2.34v-2.341zM53.853 18.732h-2.341v2.341h2.341v-2.341zM58.536 18.732h-2.342v2.341h2.342v-2.341zM63.22 18.732h-2.342v2.341h2.341v-2.341zM67.902 18.732h-2.341v2.341h2.341v-2.341zM72.585 18.732h-2.342v2.341h2.342v-2.341zM25.756 21.073h-2.342v2.342h2.341v-2.342zM32.78 21.073h-2.341v2.342h2.34v-2.342zM35.122 21.073H32.78v2.342h2.342v-2.342zM53.853 21.073h-2.341v2.342h2.341v-2.342zM58.536 21.073h-2.342v2.342h2.342v-2.342zM63.22 21.073h-2.342v2.342h2.341v-2.342zM70.244 21.073h-2.342v2.342h2.342v-2.342z" fill="#000"/>
    <path d="M72.585 21.073h-2.342v2.342h2.342v-2.342zM7.024 23.415H4.683v2.341h2.341v-2.341zM11.707 23.415H9.365v2.341h2.342v-2.341z" fill="#000"/>
    <path d="M14.049 23.415h-2.342v2.341h2.341v-2.341zM18.731 23.415H16.39v2.341h2.341v-2.341z" fill="#000"/>
    <path d="M21.073 23.415H18.73v2.341h2.342v-2.341zM23.415 23.415h-2.342v2.341h2.342v-2.341zM37.464 23.415h-2.342v2.341h2.342v-2.341zM42.146 23.415h-2.341v2.341h2.341v-2.341zM49.17 23.415h-2.34v2.341h2.34v-2.341zM51.512 23.415h-2.341v2.341h2.341v-2.341zM56.195 23.415h-2.342v2.341h2.342v-2.341zM60.878 23.415h-2.342v2.341h2.342v-2.341zM63.22 23.415h-2.342v2.341h2.341v-2.341zM67.902 23.415h-2.341v2.341h2.341v-2.341zM70.244 23.415h-2.342v2.341h2.342v-2.341zM77.268 23.415h-2.341v2.341h2.341v-2.341zM84.293 23.415H81.95v2.341h2.342v-2.341zM88.975 23.415h-2.341v2.341h2.341v-2.341zM91.317 23.415h-2.341v2.341h2.341v-2.341zM7.024 25.756H4.683v2.342h2.341v-2.342zM9.366 25.756H7.024v2.342h2.342v-2.342z" fill="#000"/>
    <path d="M11.707 25.756H9.365v2.342h2.342v-2.342zM16.39 25.756H14.05v2.342h2.341v-2.342z" fill="#000"/>
    <path d="M18.731 25.756H16.39v2.342h2.341v-2.342zM23.415 25.756h-2.342v2.342h2.342v-2.342z" fill="#000"/>
    <path d="M25.756 25.756h-2.342v2.342h2.341v-2.342zM28.097 25.756h-2.341v2.342h2.341v-2.342zM39.804 25.756h-2.341v2.342h2.341v-2.342zM42.146 25.756h-2.341v2.342h2.341v-2.342zM46.829 25.756h-2.342v2.342h2.342v-2.342zM49.17 25.756h-2.34v2.342h2.34v-2.342zM53.853 25.756h-2.341v2.342h2.341v-2.342zM56.195 25.756h-2.342v2.342h2.342v-2.342zM60.878 25.756h-2.342v2.342h2.342v-2.342zM67.902 25.756h-2.341v2.342h2.341v-2.342zM72.585 25.756h-2.342v2.342h2.342v-2.342zM79.609 25.756h-2.341v2.342h2.341v-2.342zM88.975 25.756h-2.341v2.342h2.341v-2.342zM9.366 28.098H7.024v2.341h2.342v-2.341z" fill="#000"/>
    <path d="M11.707 28.098H9.365v2.341h2.342v-2.341z" fill="#000"/>
    <path d="M14.049 28.098h-2.342v2.341h2.341v-2.341zM18.731 28.098H16.39v2.341h2.341v-2.341z" fill="#000"/>
    <path d="M21.073 28.098H18.73v2.341h2.342v-2.341zM25.756 28.098h-2.342v2.341h2.341v-2.341zM30.44 28.098h-2.342v2.341h2.341v-2.341z" fill="#000"/>
    <path d="M32.78 28.098h-2.341v2.341h2.34v-2.341zM37.464 28.098h-2.342v2.341h2.342v-2.341z" fill="#000"/>
    <path d="M39.804 28.098h-2.341v2.341h2.341v-2.341zM44.488 28.098h-2.341v2.341h2.34v-2.341zM49.17 28.098h-2.34v2.341h2.34v-2.341zM51.512 28.098h-2.341v2.341h2.341v-2.341zM53.853 28.098h-2.341v2.341h2.341v-2.341zM58.536 28.098h-2.342v2.341h2.342v-2.341zM60.878 28.098h-2.342v2.341h2.342v-2.341zM65.56 28.098H63.22v2.341h2.341v-2.341zM72.585 28.098h-2.342v2.341h2.342v-2.341zM74.926 28.098h-2.341v2.341h2.341v-2.341zM79.609 28.098h-2.341v2.341h2.341v-2.341zM81.95 28.098h-2.34v2.341h2.34v-2.341zM9.366 30.44H7.024v2.34h2.342v-2.34zM14.049 30.44h-2.342v2.34h2.341v-2.34zM23.415 30.44h-2.342v2.34h2.342v-2.34z" fill="#000"/>
    <path d="M25.756 30.44h-2.342v2.34h2.341v-2.34zM28.097 30.44h-2.341v2.34h2.341v-2.34zM35.122 30.44H32.78v2.34h2.342v-2.34zM39.804 30.44h-2.341v2.34h2.341v-2.34zM44.488 30.44h-2.341v2.34h2.34v-2.34zM49.17 30.44h-2.34v2.34h2.34v-2.34zM53.853 30.44h-2.341v2.34h2.341v-2.34zM58.536 30.44h-2.342v2.34h2.342v-2.34zM63.22 30.44h-2.342v2.34h2.341v-2.34zM65.56 30.44H63.22v2.34h2.341v-2.34zM67.902 30.44h-2.341v2.34h2.341v-2.34zM70.244 30.44h-2.342v2.34h2.342v-2.34zM81.95 30.44h-2.34v2.34h2.34v-2.34zM86.633 30.44h-2.341v2.34h2.341v-2.34zM7.024 32.78H4.683v2.342h2.341v-2.341zM9.366 32.78H7.024v2.342h2.342v-2.341zM14.049 32.78h-2.342v2.342h2.341v-2.341zM21.073 32.78H18.73v2.342h2.342v-2.341zM23.415 32.78h-2.342v2.342h2.342v-2.341zM28.097 32.78h-2.341v2.342h2.341v-2.341zM35.122 32.78H32.78v2.342h2.342v-2.341zM42.146 32.78h-2.341v2.342h2.341v-2.341zM44.488 32.78h-2.341v2.342h2.34v-2.341z" fill="#000"/>
    <path d="M46.829 32.78h-2.342v2.342h2.342v-2.341zM51.512 32.78h-2.341v2.342h2.341v-2.341zM53.853 32.78h-2.341v2.342h2.341v-2.341zM58.536 32.78h-2.342v2.342h2.342v-2.341zM63.22 32.78h-2.342v2.342h2.341v-2.341zM65.56 32.78H63.22v2.342h2.341v-2.341zM67.902 32.78h-2.341v2.342h2.341v-2.341zM74.926 32.78h-2.341v2.342h2.341v-2.341zM77.268 32.78h-2.341v2.342h2.341v-2.341zM79.609 32.78h-2.341v2.342h2.341v-2.341zM81.95 32.78h-2.34v2.342h2.34v-2.341zM86.633 32.78h-2.341v2.342h2.341v-2.341zM88.975 32.78h-2.341v2.342h2.341v-2.341zM91.317 32.78h-2.341v2.342h2.341v-2.341zM9.366 35.122H7.024v2.342h2.342v-2.342z" fill="#000"/>
    <path d="M11.707 35.122H9.365v2.342h2.342v-2.342z" fill="#000"/>
    <path d="M14.049 35.122h-2.342v2.342h2.341v-2.342zM16.39 35.122H14.05v2.342h2.341v-2.342zM25.756 35.122h-2.342v2.342h2.341v-2.342zM35.122 35.122H32.78v2.342h2.342v-2.342zM39.804 35.122h-2.341v2.342h2.341v-2.342zM42.146 35.122h-2.341v2.342h2.341v-2.342zM44.488 35.122h-2.341v2.342h2.34v-2.342z" fill="#000"/>
    <path d="M46.829 35.122h-2.342v2.342h2.342v-2.342zM51.512 35.122h-2.341v2.342h2.341v-2.342zM67.902 35.122h-2.341v2.342h2.341v-2.342zM70.244 35.122h-2.342v2.342h2.342v-2.342z" fill="#000"/>
    <path d="M72.585 35.122h-2.342v2.342h2.342v-2.342zM74.926 35.122h-2.341v2.342h2.341v-2.342zM77.268 35.122h-2.341v2.342h2.341v-2.342zM79.609 35.122h-2.341v2.342h2.341v-2.342zM81.95 35.122h-2.34v2.342h2.34v-2.342zM84.293 35.122H81.95v2.342h2.342v-2.342zM88.975 35.122h-2.341v2.342h2.341v-2.342zM91.317 35.122h-2.341v2.342h2.341v-2.342zM7.024 37.464H4.683v2.341h2.341v-2.341zM9.366 37.464H7.024v2.341h2.342v-2.341zM16.39 37.464H14.05v2.341h2.341v-2.341z" fill="#000"/>
    <path d="M18.731 37.464H16.39v2.341h2.341v-2.341z" fill="#000"/>
    <path d="M21.073 37.464H18.73v2.341h2.342v-2.341zM28.097 37.464h-2.341v2.341h2.341v-2.341zM30.44 37.464h-2.342v2.341h2.341v-2.341z" fill="#000"/>
    <path d="M32.78 37.464h-2.341v2.341h2.34v-2.341zM37.464 37.464h-2.342v2.341h2.342v-2.341zM44.488 37.464h-2.341v2.341h2.34v-2.341zM51.512 37.464h-2.341v2.341h2.341v-2.341zM63.22 37.464h-2.342v2.341h2.341v-2.341zM74.926 37.464h-2.341v2.341h2.341v-2.341zM81.95 37.464h-2.34v2.341h2.34v-2.341zM86.633 37.464h-2.341v2.341h2.341v-2.341zM88.975 37.464h-2.341v2.341h2.341v-2.341zM9.366 39.805H7.024v2.341h2.342v-2.341zM28.097 39.805h-2.341v2.341h2.341v-2.341zM30.44 39.805h-2.342v2.341h2.341v-2.341zM35.122 39.805H32.78v2.341h2.342v-2.341zM37.464 39.805h-2.342v2.341h2.342v-2.341zM42.146 39.805h-2.341v2.341h2.341v-2.341zM44.488 39.805h-2.341v2.341h2.34v-2.341zM56.195 39.805h-2.342v2.341h2.342v-2.341zM67.902 39.805h-2.341v2.341h2.341v-2.341zM72.585 39.805h-2.342v2.341h2.342v-2.341zM74.926 39.805h-2.341v2.341h2.341v-2.341zM77.268 39.805h-2.341v2.341h2.341v-2.341zM79.609 39.805h-2.341v2.341h2.341v-2.341zM81.95 39.805h-2.34v2.341h2.34v-2.341zM88.975 39.805h-2.341v2.341h2.341v-2.341zM91.317 39.805h-2.341v2.341h2.341v-2.341zM9.366 42.146H7.024v2.342h2.342v-2.342zM14.049 42.146h-2.342v2.342h2.341v-2.342zM16.39 42.146H14.05v2.342h2.341v-2.342z" fill="#000"/>
    <path d="M18.731 42.146H16.39v2.342h2.341v-2.342z" fill="#000"/>
    <path d="M21.073 42.146H18.73v2.342h2.342v-2.342zM32.78 42.146h-2.341v2.342h2.34v-2.342zM37.464 42.146h-2.342v2.342h2.342v-2.342zM42.146 42.146h-2.341v2.342h2.341v-2.342zM46.829 42.146h-2.342v2.342h2.342v-2.342zM56.195 42.146h-2.342v2.342h2.342v-2.342z" fill="#000"/>
    <path d="M58.536 42.146h-2.342v2.342h2.342v-2.342zM63.22 42.146h-2.342v2.342h2.341v-2.342zM65.56 42.146H63.22v2.342h2.341v-2.342zM67.902 42.146h-2.341v2.342h2.341v-2.342zM84.293 42.146H81.95v2.342h2.342v-2.342z" fill="#000"/>
    <path d="M86.633 42.146h-2.341v2.342h2.341v-2.342zM88.975 42.146h-2.341v2.342h2.341v-2.342zM91.317 42.146h-2.341v2.342h2.341v-2.342zM7.024 44.488H4.683v2.341h2.341v-2.341zM11.707 44.488H9.365v2.341h2.342v-2.341z" fill="#000"/>
    <path d="M14.049 44.488h-2.342v2.341h2.341v-2.341zM23.415 44.488h-2.342v2.341h2.342v-2.341z" fill="#000"/>
    <path d="M25.756 44.488h-2.342v2.341h2.341v-2.341zM28.097 44.488h-2.341v2.341h2.341v-2.341zM32.78 44.488h-2.341v2.341h2.34v-2.341zM35.122 44.488H32.78v2.341h2.342v-2.341zM37.464 44.488h-2.342v2.341h2.342v-2.341zM49.17 44.488h-2.34v2.341h2.34v-2.341zM51.512 44.488h-2.341v2.341h2.341v-2.341zM56.195 44.488h-2.342v2.341h2.342v-2.341z" fill="#000"/>
    <path d="M58.536 44.488h-2.342v2.341h2.342v-2.341zM60.878 44.488h-2.342v2.341h2.342v-2.341zM63.22 44.488h-2.342v2.341h2.341v-2.341zM70.244 44.488h-2.342v2.341h2.342v-2.341zM74.926 44.488h-2.341v2.341h2.341v-2.341zM77.268 44.488h-2.341v2.341h2.341v-2.341zM84.293 44.488H81.95v2.341h2.342v-2.341zM88.975 44.488h-2.341v2.341h2.341v-2.341zM91.317 44.488h-2.341v2.341h2.341v-2.341zM14.049 46.83h-2.342v2.34h2.341v-2.34zM16.39 46.83H14.05v2.34h2.341v-2.34z" fill="#000"/>
    <path d="M18.731 46.83H16.39v2.34h2.341v-2.34z" fill="#000"/>
    <path d="M21.073 46.83H18.73v2.34h2.342v-2.34zM23.415 46.83h-2.342v2.34h2.342v-2.34zM28.097 46.83h-2.341v2.34h2.341v-2.34zM35.122 46.83H32.78v2.34h2.342v-2.34zM37.464 46.83h-2.342v2.34h2.342v-2.34z" fill="#000"/>
    <path d="M39.804 46.83h-2.341v2.34h2.341v-2.34zM53.853 46.83h-2.341v2.34h2.341v-2.34zM58.536 46.83h-2.342v2.34h2.342v-2.34zM67.902 46.83h-2.341v2.34h2.341v-2.34zM70.244 46.83h-2.342v2.34h2.342v-2.34z" fill="#000"/>
    <path d="M72.585 46.83h-2.342v2.34h2.342v-2.34zM74.926 46.83h-2.341v2.34h2.341v-2.34zM81.95 46.83h-2.34v2.34h2.34v-2.34zM88.975 46.83h-2.341v2.34h2.341v-2.34zM91.317 46.83h-2.341v2.34h2.341v-2.34zM7.024 49.17H4.683v2.342h2.341v-2.341zM9.366 49.17H7.024v2.342h2.342v-2.341zM14.049 49.17h-2.342v2.342h2.341v-2.341zM16.39 49.17H14.05v2.342h2.341v-2.341z" fill="#000"/>
    <path d="M18.731 49.17H16.39v2.342h2.341v-2.341zM23.415 49.17h-2.342v2.342h2.342v-2.341zM28.097 49.17h-2.341v2.342h2.341v-2.341zM30.44 49.17h-2.342v2.342h2.341v-2.341z" fill="#000"/>
    <path d="M32.78 49.17h-2.341v2.342h2.34v-2.341zM39.804 49.17h-2.341v2.342h2.341v-2.341zM42.146 49.17h-2.341v2.342h2.341v-2.341zM44.488 49.17h-2.341v2.342h2.34v-2.341z" fill="#000"/>
    <path d="M46.829 49.17h-2.342v2.342h2.342v-2.341zM53.853 49.17h-2.341v2.342h2.341v-2.341zM58.536 49.17h-2.342v2.342h2.342v-2.341zM60.878 49.17h-2.342v2.342h2.342v-2.341zM67.902 49.17h-2.341v2.342h2.341v-2.341zM72.585 49.17h-2.342v2.342h2.342v-2.341zM74.926 49.17h-2.341v2.342h2.341v-2.341zM79.609 49.17h-2.341v2.342h2.341v-2.341zM84.293 49.17H81.95v2.342h2.342v-2.341zM88.975 49.17h-2.341v2.342h2.341v-2.341zM11.707 51.512H9.365v2.342h2.342v-2.342z" fill="#000"/>
    <path d="M14.049 51.512h-2.342v2.342h2.341v-2.342zM21.073 51.512H18.73v2.342h2.342v-2.342zM25.756 51.512h-2.342v2.342h2.341v-2.342zM28.097 51.512h-2.341v2.342h2.341v-2.342zM37.464 51.512h-2.342v2.342h2.342v-2.342zM42.146 51.512h-2.341v2.342h2.341v-2.342zM44.488 51.512h-2.341v2.342h2.34v-2.342z" fill="#000"/>
    <path d="M46.829 51.512h-2.342v2.342h2.342v-2.342zM49.17 51.512h-2.34v2.342h2.34v-2.342zM51.512 51.512h-2.341v2.342h2.341v-2.342zM53.853 51.512h-2.341v2.342h2.341v-2.342zM56.195 51.512h-2.342v2.342h2.342v-2.342zM67.902 51.512h-2.341v2.342h2.341v-2.342zM72.585 51.512h-2.342v2.342h2.342v-2.342zM74.926 51.512h-2.341v2.342h2.341v-2.342zM79.609 51.512h-2.341v2.342h2.341v-2.342zM81.95 51.512h-2.34v2.342h2.34v-2.342zM91.317 51.512h-2.341v2.342h2.341v-2.342zM9.366 53.854H7.024v2.341h2.342v-2.341z" fill="#000"/>
    <path d="M11.707 53.854H9.365v2.341h2.342v-2.341zM28.097 53.854h-2.341v2.341h2.341v-2.341zM30.44 53.854h-2.342v2.341h2.341v-2.341z" fill="#000"/>
    <path d="M32.78 53.854h-2.341v2.341h2.34v-2.341zM35.122 53.854H32.78v2.341h2.342v-2.341zM37.464 53.854h-2.342v2.341h2.342v-2.341z" fill="#000"/>
    <path d="M39.804 53.854h-2.341v2.341h2.341v-2.341zM44.488 53.854h-2.341v2.341h2.34v-2.341z" fill="#000"/>
    <path d="M46.829 53.854h-2.342v2.341h2.342v-2.341zM49.17 53.854h-2.34v2.341h2.34v-2.341zM51.512 53.854h-2.341v2.341h2.341v-2.341zM53.853 53.854h-2.341v2.341h2.341v-2.341zM56.195 53.854h-2.342v2.341h2.342v-2.341z" fill="#000"/>
    <path d="M58.536 53.854h-2.342v2.341h2.342v-2.341zM60.878 53.854h-2.342v2.341h2.342v-2.341zM65.56 53.854H63.22v2.341h2.341v-2.341zM72.585 53.854h-2.342v2.341h2.342v-2.341zM84.293 53.854H81.95v2.341h2.342v-2.341zM9.366 56.195H7.024v2.342h2.342v-2.342zM16.39 56.195H14.05v2.342h2.341v-2.342z" fill="#000"/>
    <path d="M18.731 56.195H16.39v2.342h2.341v-2.342z" fill="#000"/>
    <path d="M21.073 56.195H18.73v2.342h2.342v-2.342zM23.415 56.195h-2.342v2.342h2.342v-2.342z" fill="#000"/>
    <path d="M25.756 56.195h-2.342v2.342h2.341v-2.342zM28.097 56.195h-2.341v2.342h2.341v-2.342zM30.44 56.195h-2.342v2.342h2.341v-2.342zM35.122 56.195H32.78v2.342h2.342v-2.342zM37.464 56.195h-2.342v2.342h2.342v-2.342zM44.488 56.195h-2.341v2.342h2.34v-2.342zM49.17 56.195h-2.34v2.342h2.34v-2.342zM58.536 56.195h-2.342v2.342h2.342v-2.342zM60.878 56.195h-2.342v2.342h2.342v-2.342zM63.22 56.195h-2.342v2.342h2.341v-2.342zM65.56 56.195H63.22v2.342h2.341v-2.342zM79.609 56.195h-2.341v2.342h2.341v-2.342zM14.049 58.537h-2.342v2.341h2.341v-2.341zM16.39 58.537H14.05v2.341h2.341v-2.341zM25.756 58.537h-2.342v2.341h2.341v-2.341zM28.097 58.537h-2.341v2.341h2.341v-2.341zM30.44 58.537h-2.342v2.341h2.341v-2.341z" fill="#000"/>
    <path d="M32.78 58.537h-2.341v2.341h2.34v-2.341zM35.122 58.537H32.78v2.341h2.342v-2.341zM39.804 58.537h-2.341v2.341h2.341v-2.341zM44.488 58.537h-2.341v2.341h2.34v-2.341z" fill="#000"/>
    <path d="M46.829 58.537h-2.342v2.341h2.342v-2.341zM51.512 58.537h-2.341v2.341h2.341v-2.341zM60.878 58.537h-2.342v2.341h2.342v-2.341zM63.22 58.537h-2.342v2.341h2.341v-2.341zM65.56 58.537H63.22v2.341h2.341v-2.341zM70.244 58.537h-2.342v2.341h2.342v-2.341zM81.95 58.537h-2.34v2.341h2.34v-2.341zM84.293 58.537H81.95v2.341h2.342v-2.341z" fill="#000"/>
    <path d="M86.633 58.537h-2.341v2.341h2.341v-2.341zM88.975 58.537h-2.341v2.341h2.341v-2.341zM91.317 58.537h-2.341v2.341h2.341v-2.341zM7.024 60.878H4.683v2.341h2.341v-2.34zM9.366 60.878H7.024v2.341h2.342v-2.34z" fill="#000"/>
    <path d="M11.707 60.878H9.365v2.341h2.342v-2.34zM16.39 60.878H14.05v2.341h2.341v-2.34zM21.073 60.878H18.73v2.341h2.342v-2.34zM23.415 60.878h-2.342v2.341h2.342v-2.34z" fill="#000"/>
    <path d="M25.756 60.878h-2.342v2.341h2.341v-2.34zM28.097 60.878h-2.341v2.341h2.341v-2.34zM37.464 60.878h-2.342v2.341h2.342v-2.34z" fill="#000"/>
    <path d="M39.804 60.878h-2.341v2.341h2.341v-2.34zM44.488 60.878h-2.341v2.341h2.34v-2.34zM58.536 60.878h-2.342v2.341h2.342v-2.34zM60.878 60.878h-2.342v2.341h2.342v-2.34zM63.22 60.878h-2.342v2.341h2.341v-2.34zM65.56 60.878H63.22v2.341h2.341v-2.34zM67.902 60.878h-2.341v2.341h2.341v-2.34zM72.585 60.878h-2.342v2.341h2.342v-2.34zM74.926 60.878h-2.341v2.341h2.341v-2.34zM77.268 60.878h-2.341v2.341h2.341v-2.34zM81.95 60.878h-2.34v2.341h2.34v-2.34zM86.633 60.878h-2.341v2.341h2.341v-2.34zM88.975 60.878h-2.341v2.341h2.341v-2.34zM16.39 63.22H14.05v2.341h2.341V63.22zM23.415 63.22h-2.342v2.341h2.342V63.22z" fill="#000"/>
    <path d="M25.756 63.22h-2.342v2.341h2.341V63.22zM28.097 63.22h-2.341v2.341h2.341V63.22zM32.78 63.22h-2.341v2.341h2.34V63.22zM35.122 63.22H32.78v2.341h2.342V63.22zM37.464 63.22h-2.342v2.341h2.342V63.22z" fill="#000"/>
    <path d="M39.804 63.22h-2.341v2.341h2.341V63.22zM46.829 63.22h-2.342v2.341h2.342V63.22zM58.536 63.22h-2.342v2.341h2.342V63.22zM63.22 63.22h-2.342v2.341h2.341V63.22zM67.902 63.22h-2.341v2.341h2.341V63.22zM70.244 63.22h-2.342v2.341h2.342V63.22z" fill="#000"/>
    <path d="M72.585 63.22h-2.342v2.341h2.342V63.22zM74.926 63.22h-2.341v2.341h2.341V63.22zM77.268 63.22h-2.341v2.341h2.341V63.22zM81.95 63.22h-2.34v2.341h2.34V63.22zM84.293 63.22H81.95v2.341h2.342V63.22z" fill="#000"/>
    <path d="M86.633 63.22h-2.341v2.341h2.341V63.22zM88.975 63.22h-2.341v2.341h2.341V63.22zM91.317 63.22h-2.341v2.341h2.341V63.22zM9.366 65.561H7.024v2.341h2.342v-2.341z" fill="#000"/>
    <path d="M11.707 65.561H9.365v2.341h2.342v-2.341z" fill="#000"/>
    <path d="M14.049 65.561h-2.342v2.341h2.341v-2.341zM16.39 65.561H14.05v2.341h2.341v-2.341z" fill="#000"/>
    <path d="M18.731 65.561H16.39v2.341h2.341v-2.341z" fill="#000"/>
    <path d="M21.073 65.561H18.73v2.341h2.342v-2.341zM32.78 65.561h-2.341v2.341h2.34v-2.341zM35.122 65.561H32.78v2.341h2.342v-2.341zM49.17 65.561h-2.34v2.341h2.34v-2.341zM56.195 65.561h-2.342v2.341h2.342v-2.341z" fill="#000"/>
    <path d="M58.536 65.561h-2.342v2.341h2.342v-2.341zM65.56 65.561H63.22v2.341h2.341v-2.341zM67.902 65.561h-2.341v2.341h2.341v-2.341zM79.609 65.561h-2.341v2.341h2.341v-2.341zM88.975 65.561h-2.341v2.341h2.341v-2.341zM7.024 67.903H4.683v2.34h2.341v-2.34zM11.707 67.903H9.365v2.34h2.342v-2.34z" fill="#000"/>
    <path d="M14.049 67.903h-2.342v2.34h2.341v-2.34zM16.39 67.903H14.05v2.34h2.341v-2.34z" fill="#000"/>
    <path d="M18.731 67.903H16.39v2.34h2.341v-2.34zM25.756 67.903h-2.342v2.34h2.341v-2.34zM42.146 67.903h-2.341v2.34h2.341v-2.34zM51.512 67.903h-2.341v2.34h2.341v-2.34zM53.853 67.903h-2.341v2.34h2.341v-2.34zM56.195 67.903h-2.342v2.34h2.342v-2.34zM67.902 67.903h-2.341v2.34h2.341v-2.34zM70.244 67.903h-2.342v2.34h2.342v-2.34zM74.926 67.903h-2.341v2.34h2.341v-2.34zM77.268 67.903h-2.341v2.34h2.341v-2.34zM79.609 67.903h-2.341v2.34h2.341v-2.34zM91.317 67.903h-2.341v2.34h2.341v-2.34zM14.049 70.244h-2.342v2.341h2.341v-2.341zM16.39 70.244H14.05v2.341h2.341v-2.341zM21.073 70.244H18.73v2.341h2.342v-2.341zM35.122 70.244H32.78v2.341h2.342v-2.341zM37.464 70.244h-2.342v2.341h2.342v-2.341zM49.17 70.244h-2.34v2.341h2.34v-2.341zM51.512 70.244h-2.341v2.341h2.341v-2.341zM53.853 70.244h-2.341v2.341h2.341v-2.341zM56.195 70.244h-2.342v2.341h2.342v-2.341z" fill="#000"/>
    <path d="M58.536 70.244h-2.342v2.341h2.342v-2.341zM60.878 70.244h-2.342v2.341h2.342v-2.341zM65.56 70.244H63.22v2.341h2.341v-2.341zM67.902 70.244h-2.341v2.341h2.341v-2.341zM72.585 70.244h-2.342v2.341h2.342v-2.341zM74.926 70.244h-2.341v2.341h2.341v-2.341zM77.268 70.244h-2.341v2.341h2.341v-2.341zM79.609 70.244h-2.341v2.341h2.341v-2.341zM81.95 70.244h-2.34v2.341h2.34v-2.341zM86.633 70.244h-2.341v2.341h2.341v-2.341zM88.975 70.244h-2.341v2.341h2.341v-2.341zM91.317 70.244h-2.341v2.341h2.341v-2.341zM25.756 72.585h-2.342v2.342h2.341v-2.342zM32.78 72.585h-2.341v2.342h2.34v-2.342zM35.122 72.585H32.78v2.342h2.342v-2.342zM37.464 72.585h-2.342v2.342h2.342v-2.342z" fill="#000"/>
    <path d="M39.804 72.585h-2.341v2.342h2.341v-2.342zM42.146 72.585h-2.341v2.342h2.341v-2.342zM49.17 72.585h-2.34v2.342h2.34v-2.342zM53.853 72.585h-2.341v2.342h2.341v-2.342zM58.536 72.585h-2.342v2.342h2.342v-2.342zM60.878 72.585h-2.342v2.342h2.342v-2.342zM63.22 72.585h-2.342v2.342h2.341v-2.342zM72.585 72.585h-2.342v2.342h2.342v-2.342zM81.95 72.585h-2.34v2.342h2.34v-2.342zM86.633 72.585h-2.341v2.342h2.341v-2.342zM88.975 72.585h-2.341v2.342h2.341v-2.342zM91.317 72.585h-2.341v2.342h2.341v-2.342zM25.756 74.927h-2.342v2.341h2.341v-2.341zM28.097 74.927h-2.341v2.341h2.341v-2.341zM35.122 74.927H32.78v2.341h2.342v-2.341zM39.804 74.927h-2.341v2.341h2.341v-2.341zM42.146 74.927h-2.341v2.341h2.341v-2.341zM44.488 74.927h-2.341v2.341h2.34v-2.341zM49.17 74.927h-2.34v2.341h2.34v-2.341zM53.853 74.927h-2.341v2.341h2.341v-2.341zM67.902 74.927h-2.341v2.341h2.341v-2.341zM72.585 74.927h-2.342v2.341h2.342v-2.341zM77.268 74.927h-2.341v2.341h2.341v-2.341zM81.95 74.927h-2.34v2.341h2.34v-2.341zM86.633 74.927h-2.341v2.341h2.341v-2.341zM91.317 74.927h-2.341v2.341h2.341v-2.341zM25.756 77.268h-2.342v2.342h2.341v-2.342zM30.44 77.268h-2.342v2.342h2.341v-2.342zM37.464 77.268h-2.342v2.342h2.342v-2.342zM46.829 77.268h-2.342v2.342h2.342v-2.342zM49.17 77.268h-2.34v2.342h2.34v-2.342zM51.512 77.268h-2.341v2.342h2.341v-2.342zM72.585 77.268h-2.342v2.342h2.342v-2.342zM81.95 77.268h-2.34v2.342h2.34v-2.342zM91.317 77.268h-2.341v2.342h2.341v-2.342zM28.097 79.61h-2.341v2.341h2.341V79.61zM30.44 79.61h-2.342v2.341h2.341V79.61zM37.464 79.61h-2.342v2.341h2.342V79.61zM44.488 79.61h-2.341v2.341h2.34V79.61zM56.195 79.61h-2.342v2.341h2.342V79.61z" fill="#000"/>
    <path d="M58.536 79.61h-2.342v2.341h2.342V79.61zM63.22 79.61h-2.342v2.341h2.341V79.61zM67.902 79.61h-2.341v2.341h2.341V79.61zM72.585 79.61h-2.342v2.341h2.342V79.61zM74.926 79.61h-2.341v2.341h2.341V79.61zM77.268 79.61h-2.341v2.341h2.341V79.61zM79.609 79.61h-2.341v2.341h2.341V79.61zM81.95 79.61h-2.34v2.341h2.34V79.61zM84.293 79.61H81.95v2.341h2.342V79.61zM25.756 81.951h-2.342v2.342h2.341V81.95zM28.097 81.951h-2.341v2.342h2.341V81.95zM39.804 81.951h-2.341v2.342h2.341V81.95zM42.146 81.951h-2.341v2.342h2.341V81.95zM44.488 81.951h-2.341v2.342h2.34V81.95z" fill="#000"/>
    <path d="M56.195 81.951h-2.342v2.342h2.342V81.95z" fill="#000"/>
    <path d="M58.536 81.951h-2.342v2.342h2.342V81.95zM60.878 81.951h-2.342v2.342h2.342V81.95zM65.56 81.951H63.22v2.342h2.341V81.95zM74.926 81.951h-2.341v2.342h2.341V81.95zM77.268 81.951h-2.341v2.342h2.341V81.95zM81.95 81.951h-2.34v2.342h2.34V81.95zM91.317 81.951h-2.341v2.342h2.341V81.95zM25.756 84.293h-2.342v2.341h2.341v-2.341zM28.097 84.293h-2.341v2.341h2.341v-2.341zM30.44 84.293h-2.342v2.341h2.341v-2.341zM39.804 84.293h-2.341v2.341h2.341v-2.341zM42.146 84.293h-2.341v2.341h2.341v-2.341zM46.829 84.293h-2.342v2.341h2.342v-2.341zM49.17 84.293h-2.34v2.341h2.34v-2.341zM53.853 84.293h-2.341v2.341h2.341v-2.341zM58.536 84.293h-2.342v2.341h2.342v-2.341zM60.878 84.293h-2.342v2.341h2.342v-2.341zM63.22 84.293h-2.342v2.341h2.341v-2.341zM65.56 84.293H63.22v2.341h2.341v-2.341zM72.585 84.293h-2.342v2.341h2.342v-2.341zM77.268 84.293h-2.341v2.341h2.341v-2.341zM81.95 84.293h-2.34v2.341h2.34v-2.341zM84.293 84.293H81.95v2.341h2.342v-2.341zM28.097 86.634h-2.341v2.342h2.341v-2.342zM30.44 86.634h-2.342v2.342h2.341v-2.342z" fill="#000"/>
    <path d="M32.78 86.634h-2.341v2.342h2.34v-2.342zM35.122 86.634H32.78v2.342h2.342v-2.342zM37.464 86.634h-2.342v2.342h2.342v-2.342z" fill="#000"/>
    <path d="M39.804 86.634h-2.341v2.342h2.341v-2.342zM42.146 86.634h-2.341v2.342h2.341v-2.342zM51.512 86.634h-2.341v2.342h2.341v-2.342zM53.853 86.634h-2.341v2.342h2.341v-2.342zM63.22 86.634h-2.342v2.342h2.341v-2.342zM65.56 86.634H63.22v2.342h2.341v-2.342zM70.244 86.634h-2.342v2.342h2.342v-2.342zM79.609 86.634h-2.341v2.342h2.341v-2.342zM81.95 86.634h-2.34v2.342h2.34v-2.342zM84.293 86.634H81.95v2.342h2.342v-2.342z" fill="#000"/>
    <path d="M86.633 86.634h-2.341v2.342h2.341v-2.342zM25.756 88.976h-2.342v2.341h2.341v-2.341zM28.097 88.976h-2.341v2.341h2.341v-2.341zM30.44 88.976h-2.342v2.341h2.341v-2.341z" fill="#000"/>
    <path d="M32.78 88.976h-2.341v2.341h2.34v-2.341zM35.122 88.976H32.78v2.341h2.342v-2.341zM39.804 88.976h-2.341v2.341h2.341v-2.341zM46.829 88.976h-2.342v2.341h2.342v-2.341zM63.22 88.976h-2.342v2.341h2.341v-2.341zM65.56 88.976H63.22v2.341h2.341v-2.341zM67.902 88.976h-2.341v2.341h2.341v-2.341zM74.926 88.976h-2.341v2.341h2.341v-2.341zM77.268 88.976h-2.341v2.341h2.341v-2.341zM81.95 88.976h-2.34v2.341h2.34v-2.341zM86.633 88.976h-2.341v2.341h2.341v-2.341zM88.975 88.976h-2.341v2.341h2.341v-2.341zM91.317 88.976h-2.341v2.341h2.341v-2.341zM18.614 4.683H4.683v16.39h16.39V4.683h-2.459zm0 13.932H7.141V7.142h11.473v11.473zM88.859 4.683H74.927v16.39h16.39V4.683h-2.458zm0 13.932H77.385V7.142H88.86v11.473zM18.614 74.927H4.683v16.39h16.39v-16.39h-2.459zm0 13.932H7.141V77.385h11.473V88.86z" fill="#000"/>
    <path d="M16.39 9.366H9.365v7.024h7.025V9.366zM86.634 9.366h-7.025v7.024h7.025V9.366zM16.39 79.61H9.365v7.024h7.025V79.61z" fill="#000"/>
</svg>
