<svg width="120" height="41" viewBox="0 0 120 41" fill="none" xmlns="http://www.w3.org/2000/svg">
    <g clip-path="url(#ynnq7leh7a)">
        <path d="M110.135.5H9.535c-.367 0-.73 0-1.095.002-.306.002-.61.008-.919.013C6.85.523 6.18.582 5.517.692a6.665 6.665 0 0 0-1.9.627A6.438 6.438 0 0 0 .193 6.022a12.993 12.993 0 0 0-.179 2.002c-.01.306-.01.614-.015.92V32.06c.005.31.006.611.015.922.008.67.068 1.34.18 2.002.11.663.32 1.305.624 1.904.303.598.701 1.143 1.179 1.614.473.477 1.019.875 1.618 1.179a6.7 6.7 0 0 0 1.901.63c.663.11 1.333.169 2.004.177.31.007.613.011.919.011.366.002.728.002 1.095.002h100.6c.359 0 .724 0 1.084-.002.304 0 .617-.004.922-.01a13.27 13.27 0 0 0 2-.177 6.805 6.805 0 0 0 1.908-.631 6.293 6.293 0 0 0 1.617-1.179 6.403 6.403 0 0 0 1.182-1.614c.302-.6.51-1.242.619-1.904.111-.662.173-1.331.185-2.002.004-.311.004-.612.004-.922.008-.364.008-.725.008-1.094V10.036c0-.366 0-.73-.008-1.092 0-.306 0-.614-.004-.92a13.57 13.57 0 0 0-.185-2.002 6.648 6.648 0 0 0-.619-1.904 6.469 6.469 0 0 0-2.799-2.8 6.77 6.77 0 0 0-1.908-.627c-.661-.11-1.33-.169-2-.176-.305-.005-.618-.011-.922-.013-.36-.002-.725-.002-1.084-.002z" fill="#A6A6A6"/>
        <path d="M8.445 39.625c-.305 0-.602-.004-.904-.01a12.696 12.696 0 0 1-1.87-.164 5.884 5.884 0 0 1-1.656-.548 5.406 5.406 0 0 1-1.397-1.016 5.321 5.321 0 0 1-1.02-1.397 5.722 5.722 0 0 1-.544-1.657 12.413 12.413 0 0 1-.166-1.875c-.007-.21-.015-.913-.015-.913v-23.1s.009-.692.015-.895a12.37 12.37 0 0 1 .165-1.872 5.755 5.755 0 0 1 .544-1.662c.26-.518.603-.99 1.015-1.398A5.565 5.565 0 0 1 5.668 1.55c.62-.101 1.247-.156 1.875-.164l.902-.012h102.769l.913.013a12.37 12.37 0 0 1 1.858.162 5.933 5.933 0 0 1 1.671.548 5.589 5.589 0 0 1 2.415 2.42c.261.52.441 1.076.536 1.649.103.624.161 1.255.173 1.887.003.283.003.588.003.89.008.375.008.732.008 1.092v20.929c0 .363 0 .718-.008 1.075 0 .325 0 .623-.004.93-.011.62-.068 1.24-.171 1.853a5.716 5.716 0 0 1-.54 1.67 5.47 5.47 0 0 1-1.015 1.386 5.414 5.414 0 0 1-1.4 1.022 5.855 5.855 0 0 1-1.668.55c-.618.101-1.243.156-1.869.163-.293.007-.599.011-.897.011l-1.084.002-101.69-.002z" fill="#000"/>
        <path d="M24.769 20.8a4.947 4.947 0 0 1 2.357-4.152 5.066 5.066 0 0 0-3.992-2.157c-1.679-.176-3.307 1.005-4.163 1.005-.872 0-2.19-.988-3.608-.959a5.315 5.315 0 0 0-4.473 2.728c-1.934 3.349-.491 8.27 1.361 10.976.927 1.326 2.01 2.806 3.428 2.754 1.387-.058 1.905-.885 3.58-.885 1.658 0 2.144.885 3.59.851 1.489-.024 2.426-1.33 3.32-2.669a10.96 10.96 0 0 0 1.52-3.092 4.782 4.782 0 0 1-2.92-4.4zM22.038 12.71a4.873 4.873 0 0 0 1.114-3.49 4.958 4.958 0 0 0-3.207 1.66A4.638 4.638 0 0 0 18.8 14.24a4.099 4.099 0 0 0 3.237-1.53zM42.303 27.64h-4.734l-1.136 3.356h-2.005l4.483-12.418h2.083l4.483 12.418H43.44l-1.136-3.356zm-4.243-1.55h3.752l-1.85-5.447h-.052l-1.85 5.448zM55.16 26.47c0 2.813-1.506 4.62-3.778 4.62a3.07 3.07 0 0 1-2.849-1.583h-.043v4.484h-1.858V21.942h1.799v1.506h.034a3.212 3.212 0 0 1 2.883-1.6c2.297 0 3.812 1.816 3.812 4.622zm-1.91 0c0-1.833-.947-3.038-2.393-3.038-1.42 0-2.375 1.23-2.375 3.038 0 1.824.956 3.046 2.375 3.046 1.446 0 2.393-1.197 2.393-3.046zM65.125 26.47c0 2.813-1.506 4.62-3.778 4.62a3.069 3.069 0 0 1-2.849-1.583h-.043v4.484h-1.858V21.942h1.798v1.506h.035a3.21 3.21 0 0 1 2.883-1.6c2.297 0 3.812 1.816 3.812 4.622zm-1.91 0c0-1.833-.947-3.038-2.393-3.038-1.42 0-2.375 1.23-2.375 3.038 0 1.824.955 3.046 2.375 3.046 1.446 0 2.393-1.197 2.393-3.046zM71.711 27.536c.138 1.231 1.334 2.04 2.969 2.04 1.566 0 2.693-.809 2.693-1.919 0-.964-.68-1.54-2.289-1.936l-1.61-.388c-2.28-.55-3.338-1.617-3.338-3.348 0-2.142 1.867-3.614 4.518-3.614 2.624 0 4.423 1.472 4.484 3.614h-1.876c-.113-1.239-1.137-1.987-2.634-1.987-1.497 0-2.522.757-2.522 1.858 0 .878.655 1.395 2.255 1.79l1.368.336c2.548.603 3.607 1.626 3.607 3.443 0 2.323-1.85 3.778-4.794 3.778-2.754 0-4.613-1.42-4.733-3.667h1.902zM83.347 19.8v2.142h1.721v1.472h-1.721v4.991c0 .775.344 1.137 1.101 1.137.205-.004.409-.018.612-.043v1.463c-.34.063-.687.092-1.033.086-1.833 0-2.547-.689-2.547-2.445v-5.19h-1.317v-1.47h1.317V19.8h1.867zM86.065 26.47c0-2.849 1.678-4.64 4.294-4.64 2.625 0 4.295 1.79 4.295 4.64 0 2.856-1.66 4.638-4.295 4.638-2.632 0-4.294-1.782-4.294-4.638zm6.696 0c0-1.954-.896-3.108-2.402-3.108-1.505 0-2.4 1.162-2.4 3.108 0 1.962.894 3.106 2.4 3.106 1.506 0 2.402-1.145 2.402-3.106zM96.186 21.942h1.773v1.541h.043a2.159 2.159 0 0 1 2.178-1.636c.214 0 .427.023.636.07v1.738a2.596 2.596 0 0 0-.835-.112 1.873 1.873 0 0 0-1.936 2.083v5.37h-1.859v-9.054zM109.385 28.337c-.25 1.643-1.851 2.771-3.899 2.771-2.633 0-4.268-1.764-4.268-4.595 0-2.84 1.643-4.682 4.19-4.682 2.505 0 4.08 1.72 4.08 4.466v.636h-6.394v.113a2.353 2.353 0 0 0 1.458 2.391c.31.127.643.185.977.173a2.05 2.05 0 0 0 2.091-1.273h1.765zm-6.282-2.702h4.526a2.173 2.173 0 0 0-2.221-2.298 2.29 2.29 0 0 0-2.305 2.298zM37.826 9.231a2.64 2.64 0 0 1 2.808 2.965c0 1.906-1.03 3.002-2.808 3.002h-2.155V9.23h2.155zm-1.228 5.123h1.125a1.875 1.875 0 0 0 1.967-2.146 1.882 1.882 0 0 0-1.967-2.134h-1.125v4.28zM41.68 12.944a2.134 2.134 0 1 1 4.248 0 2.132 2.132 0 1 1-4.247 0zm3.334 0c0-.976-.439-1.546-1.208-1.546-.773 0-1.207.57-1.207 1.546 0 .984.434 1.55 1.207 1.55.77 0 1.208-.57 1.208-1.55zM51.573 15.198h-.922l-.93-3.317h-.07l-.927 3.317h-.913l-1.242-4.503h.902l.806 3.436h.067l.925-3.436h.853l.926 3.436h.07l.803-3.436h.889l-1.237 4.503zM53.853 10.695h.856v.715h.066a1.348 1.348 0 0 1 1.344-.802 1.466 1.466 0 0 1 1.559 1.675v2.915h-.889v-2.692c0-.724-.314-1.084-.972-1.084a1.034 1.034 0 0 0-1.075 1.141v2.635h-.889v-4.503zM59.094 8.937h.888v6.26h-.888v-6.26zM61.218 12.944a2.133 2.133 0 1 1 4.248 0 2.134 2.134 0 1 1-4.248 0zm3.333 0c0-.976-.439-1.546-1.208-1.546-.772 0-1.207.57-1.207 1.546 0 .984.435 1.55 1.207 1.55.77 0 1.208-.57 1.208-1.55zM66.4 13.924c0-.81.604-1.277 1.675-1.344l1.22-.07v-.389c0-.476-.314-.744-.922-.744-.496 0-.84.182-.938.5h-.86c.09-.773.818-1.27 1.84-1.27 1.128 0 1.765.563 1.765 1.514v3.077h-.856v-.633h-.07a1.515 1.515 0 0 1-1.353.707 1.36 1.36 0 0 1-1.5-1.348zm2.895-.384v-.377l-1.1.07c-.62.042-.901.253-.901.65 0 .405.352.64.835.64a1.064 1.064 0 0 0 1.166-.983zM71.348 12.944c0-1.423.731-2.324 1.869-2.324a1.484 1.484 0 0 1 1.38.79h.067V8.937h.889v6.26H74.7v-.71h-.07a1.563 1.563 0 0 1-1.414.785c-1.146 0-1.87-.901-1.87-2.328zm.918 0c0 .955.45 1.53 1.203 1.53.749 0 1.212-.583 1.212-1.526 0-.938-.468-1.53-1.212-1.53-.748 0-1.203.58-1.203 1.526zM79.23 12.944a2.132 2.132 0 1 1 4.247 0 2.132 2.132 0 1 1-4.247 0zm3.333 0c0-.976-.439-1.546-1.208-1.546-.773 0-1.207.57-1.207 1.546 0 .984.434 1.55 1.207 1.55.77 0 1.208-.57 1.208-1.55zM84.669 10.695h.855v.715h.067a1.348 1.348 0 0 1 1.344-.802 1.466 1.466 0 0 1 1.558 1.675v2.915h-.888v-2.692c0-.724-.315-1.084-.972-1.084a1.034 1.034 0 0 0-1.075 1.141v2.635h-.89v-4.503zM93.515 9.574v1.141h.975v.749h-.975v2.315c0 .472.194.678.636.678.114 0 .227-.007.34-.02v.74c-.16.029-.322.044-.484.046-.988 0-1.382-.348-1.382-1.216v-2.543h-.715v-.749h.715V9.574h.89zM95.705 8.937h.88v2.482h.071a1.386 1.386 0 0 1 1.373-.807 1.485 1.485 0 0 1 1.551 1.678v2.908h-.89V12.51c0-.72-.334-1.084-.962-1.084a1.05 1.05 0 0 0-1.134 1.142v2.63h-.889V8.937zM104.761 13.982a1.823 1.823 0 0 1-1.951 1.303 2.05 2.05 0 0 1-2.01-1.447 2.05 2.05 0 0 1-.07-.878 2.093 2.093 0 0 1 .071-.88 2.08 2.08 0 0 1 2.005-1.473c1.253 0 2.009.857 2.009 2.27v.311h-3.18v.05a1.19 1.19 0 0 0 1.2 1.29 1.077 1.077 0 0 0 1.071-.546h.855zm-3.126-1.451h2.275a1.094 1.094 0 0 0-.667-1.083 1.084 1.084 0 0 0-.442-.084 1.15 1.15 0 0 0-1.166 1.167z" fill="#fff"/>
    </g>
    <defs>
        <clipPath id="ynnq7leh7a">
            <path fill="#fff" transform="translate(0 .5)" d="M0 0h119.664v40H0z"/>
        </clipPath>
    </defs>
</svg>
