<svg width="467" height="405" viewBox="0 0 467 405" fill="none" xmlns="http://www.w3.org/2000/svg">
    <g opacity=".5" fill-rule="evenodd" clip-rule="evenodd" fill="#C2C2C2">
        <path d="M160 32v57h229V32H160zm221 8H168v41h213V40zM75 61c0 10.493-8.507 19-19 19s-19-8.507-19-19 8.507-19 19-19 19 8.507 19 19zm-8 0c0 6.075-4.925 11-11 11s-11-4.925-11-11 4.925-11 11-11 11 4.925 11 11zM132 61c0 10.493-8.507 19-19 19s-19-8.507-19-19 8.507-19 19-19 19 8.507 19 19zm-8 0c0 6.075-4.925 11-11 11s-11-4.925-11-11 4.925-11 11-11 11 4.925 11 11z"/>
        <path d="M0 348a2 2 0 0 0 2 2h257.74a109.09 109.09 0 0 1-4.947-8H8V123h420v88.997a109.707 109.707 0 0 1 8 8.898V4a4 4 0 0 0-4-4H4a4 4 0 0 0-4 4v344zM8 8v107h420V8H8z"/>
        <path d="M350.5 384c24.714 0 47.235-9.338 64.192-24.661l46.51 45.52 5.596-5.718-46.398-45.41C436.283 336.766 446 314.012 446 289c0-52.467-42.757-95-95.5-95S255 236.533 255 289s42.757 95 95.5 95zm0-8c48.365 0 87.5-38.991 87.5-87s-39.135-87-87.5-87-87.5 38.991-87.5 87 39.135 87 87.5 87z"/>
    </g>
</svg>
