<svg xmlns="http://www.w3.org/2000/svg" width="22" height="24" viewBox="0 0 22 24">
    <path fill="#FFF" d="M13.2 0L22 2.667v18.666L13.2 24v-2.222H8.36v-4h.88v3.11h3.96v-16H9.24v4h-.88V4h4.84V0zm.88 1.194v21.611l7.04-2.133V3.327l-7.04-2.133zm-9.325 6.98l4.666 4.715-4.666 4.714-.622-.629 3.604-3.64H0v-.89h7.738l-3.605-3.64.622-.63zm11.525 3.382c.729 0 1.32.597 1.32 1.333s-.591 1.333-1.32 1.333c-.729 0-1.32-.597-1.32-1.333s.591-1.333 1.32-1.333zm0 .888c-.243 0-.44.2-.44.445s.197.444.44.444.44-.199.44-.444c0-.246-.197-.445-.44-.445z"/>
</svg>
