<svg width="200" height="58" viewBox="0 0 200 58" fill="none" xmlns="http://www.w3.org/2000/svg">
    <rect width="57.817" height="57.817" rx="23" fill="url(#1r5xn459da)"/>
    <path d="M26.644 26.385c-1.327.01-2.276 1.061-2.327 2.49-.06 1.505.911 2.802 2.26 2.814 4.272.037 8.54.054 12.806-.015 1.75-.03 2.946-1.522 2.795-3.339-.092-1.091-.24-2.204-.552-3.248-2.065-6.973-8.677-10.733-15.852-9.07-1.43.331-2.728.9-3.88 1.652-5.416-.009-1.397-.008-7.52.001-1.718.002-2.774.947-2.793 2.452-.023 1.521 1.07 2.489 2.853 2.495 1.02.003 2.041 0 3.062 0a14.043 14.043 0 0 0-1.162 3.153l-4.163.007c-1.719.003-2.775.947-2.795 2.452-.025 1.523 1.07 2.486 2.854 2.492 1.275.005 2.553.002 3.83.002a12.892 12.892 0 0 0 2.786 6.552c4.852 5.973 14.152 6.6 20.146 1.349 1.217-1.072 1.362-2.42.387-3.672-1.01-1.3-2.563-1.57-3.742-.562-1.298 1.112-2.776 1.747-4.39 2.105-3.606.797-6.972-.977-8.48-4.475a7.956 7.956 0 0 1-.431-1.297c.144 0 .169-.001 0-.001-.712-2.957.338-6.089 2.794-7.963 3.76-2.868 9.502-.953 10.563 3.62-3.073-.001-6.06-.016-9.049.006zM73.08 19.045v8.634h13.124v2.698H73.08v11.151h-5.213V16.346h22.65v2.699H73.08z" fill="#fff"/>
    <path fill-rule="evenodd" clip-rule="evenodd" d="M110.6 16.49c-1.762-.576-3.721-.864-5.879-.864-2.157 0-4.123.288-5.896.864-1.774.576-3.29 1.427-4.548 2.554-1.259 1.128-2.23 2.518-2.913 4.172-.683 1.656-1.024 3.563-1.024 5.72 0 2.158.341 4.066 1.024 5.72s1.654 3.046 2.913 4.173c1.258 1.127 2.773 1.979 4.548 2.554 1.773.575 3.738.863 5.896.863 2.157 0 4.117-.287 5.879-.863 1.761-.575 3.271-1.427 4.53-2.554 1.258-1.127 2.234-2.519 2.93-4.173.695-1.654 1.042-3.562 1.042-5.72 0-2.157-.347-4.064-1.042-5.72-.695-1.654-1.672-3.044-2.93-4.172-1.259-1.127-2.769-1.978-4.53-2.554zm-9.313 2.303a9.068 9.068 0 0 1 3.434-.648c1.223 0 2.367.215 3.434.648a7.455 7.455 0 0 1 2.787 1.978c.791.888 1.419 2.01 1.887 3.364.468 1.356.702 2.956.702 4.803s-.234 3.447-.702 4.802c-.468 1.355-1.096 2.478-1.887 3.364a7.435 7.435 0 0 1-2.787 1.978 9.066 9.066 0 0 1-3.434.648 9.066 9.066 0 0 1-3.434-.648 7.435 7.435 0 0 1-2.786-1.978c-.791-.887-1.42-2.009-1.887-3.364-.468-1.355-.702-2.955-.702-4.802 0-1.847.234-3.447.702-4.803.467-1.355 1.096-2.476 1.887-3.364a7.434 7.434 0 0 1 2.786-1.978zM140.298 16.94c-1.427-.396-3.038-.594-4.836-.594h-12.944v25.182h5.214v-7.555h8.377l5.285 7.555h5.933l-5.933-8.49c1.798-.695 3.176-1.703 4.135-3.021.959-1.318 1.438-2.938 1.438-4.856 0-1.392-.264-2.632-.79-3.724a7.648 7.648 0 0 0-2.266-2.77c-.982-.756-2.187-1.33-3.613-1.727zm-12.566 14.335v-12.23h7.73c1.894 0 3.356.498 4.387 1.492 1.03.996 1.546 2.536 1.546 4.624 0 2.086-.516 3.627-1.546 4.622-1.031.995-2.493 1.492-4.387 1.492h-7.73z" fill="#fff"/>
    <path d="M155.597 19.045v8.274h13.124v2.698h-13.124v8.814h16.718v2.698h-21.932V16.346h21.932v2.699h-16.718zM189.286 28.613 200 41.528h-6.112l-7.659-9.209-7.622 9.209h-6.112l10.679-12.915-10.139-12.267h6.111l7.083 8.598 7.12-8.598h6.112l-10.175 12.267z" fill="#fff"/>
    <defs>
        <linearGradient id="1r5xn459da" x1="57.817" y1="57.817" x2="0" y2="0" gradientUnits="userSpaceOnUse">
            <stop stop-color="#3C5A9B"/>
            <stop offset="1" stop-color="#4874D5"/>
        </linearGradient>
    </defs>
</svg>
