<svg width="48" height="48" viewBox="0 0 48 48" fill="none" xmlns="http://www.w3.org/2000/svg">
    <path fill-rule="evenodd" clip-rule="evenodd" d="M28.148 23.939a4 4 0 1 1-8 0 4 4 0 0 1 8 0zm-2 0a2 2 0 1 1-4 0 2 2 0 0 1 4 0z" fill="#fff"/>
    <path fill-rule="evenodd" clip-rule="evenodd" d="M24 15c5.654 0 10.434 3.79 12 9-1.566 5.21-6.346 9-12 9s-10.434-3.79-12-9c1.566-5.21 6.346-9 12-9zm0 16c-4.523 0-8.405-2.9-9.894-7 1.49-4.1 5.37-7 9.894-7 4.523 0 8.405 2.9 9.894 7-1.49 4.1-5.37 7-9.894 7z" fill="#fff"/>
</svg>
