<svg width="76" height="94" viewBox="0 0 76 94" fill="none" xmlns="http://www.w3.org/2000/svg">
    <path fill-rule="evenodd" clip-rule="evenodd" d="M40.11 52.493V48.41a3.167 3.167 0 1 0-4.222 0v4.084a2 2 0 0 0 2 2h.222a2 2 0 0 0 2-2zm-1.334-5.574a2 2 0 0 0-.666 1.49v4.084h-.222V48.41a2 2 0 0 0-.666-1.49 1.167 1.167 0 1 1 1.555 0z" fill="#141C25"/>
    <path fill-rule="evenodd" clip-rule="evenodd" d="M25.166 35.417a4 4 0 0 0-4 4v17.75a4 4 0 0 0 4 4h25.667a4 4 0 0 0 4-4v-17.75a4 4 0 0 0-4-4h-2.54v-3.75c0-5.684-4.608-10.292-10.292-10.292s-10.292 4.608-10.292 10.292v3.75h-2.543zm-2 4a2 2 0 0 1 2-2h25.667a2 2 0 0 1 2 2v17.75a2 2 0 0 1-2 2H25.166a2 2 0 0 1-2-2v-17.75zm23.126-4.209v-3.541a8.292 8.292 0 1 0-16.583 0v3.541h16.583z" fill="#141C25"/>
    <path fill-rule="evenodd" clip-rule="evenodd" d="M43.29 88.752 38 93.417l-5.29-4.665A96.583 96.583 0 0 1 0 16.306V10.52L38 0l38 10.52v5.786a96.583 96.583 0 0 1-32.71 72.446zM38 2.075l36 9.967v4.264a94.583 94.583 0 0 1-32.032 70.946L38 90.75l-3.968-3.498A94.583 94.583 0 0 1 2 16.306v-4.264l36-9.967z" fill="#141C25"/>
</svg>
