<svg width="84" height="91" viewBox="0 0 84 91" fill="none" xmlns="http://www.w3.org/2000/svg">
    <path fill-rule="evenodd" clip-rule="evenodd" d="M84 30.476H60.087l-2.327 2.317c1.056 1.026 1.756 2.816 1.756 4.853 0 2.982-1.5 5.436-3.422 5.737a17.761 17.761 0 0 1-7.086 12.883v5.809a4.179 4.179 0 0 0 3.365 4.108l11.26 2.204C73.86 70.387 79.71 81.302 75.755 91H1.245C-2.71 81.302 3.14 70.388 13.367 68.387l11.26-2.204a4.179 4.179 0 0 0 3.365-4.108v-5.809a17.761 17.761 0 0 1-7.086-12.883c-1.923-.301-3.422-2.755-3.422-5.737 0-2.605 1.144-4.806 2.715-5.522l-.499-7.976C19.017 13.232 27.63 4 38.5 4c.505 0 1.005.02 1.5.06V0h44v30.476zM40 6.066A16.962 16.962 0 0 0 38.5 6c-9.703 0-17.416 8.245-16.804 18.023l.585 9.35-1.252.57c-.573.262-1.545 1.51-1.545 3.703 0 1.172.297 2.167.704 2.844.42.698.833.887 1.027.917l1.562.245.123 1.577a15.761 15.761 0 0 0 6.289 11.435l.803.6v6.81a6.178 6.178 0 0 1-4.981 6.072L13.75 70.35C5.208 72.02.12 80.792 2.65 89h71.697c2.531-8.209-2.556-16.979-11.099-18.65l-11.26-2.204a6.179 6.179 0 0 1-4.981-6.071v-6.811l.803-.6a15.76 15.76 0 0 0 6.29-11.435l.121-1.577 1.562-.245c.195-.03.608-.219 1.028-.917.407-.677.704-1.672.704-2.844 0-1.767-.631-2.921-1.176-3.439L50.522 40v-9.524H40V6.066zm19.261 22.41-6.74 6.71v-6.71H42V2h40v26.476H59.261z" fill="#091C27"/>
</svg>
